<?xml version="1.0" encoding="UTF-8" standalone="no"?>
<!DOCTYPE svg PUBLIC "-//W3C//DTD SVG 1.1//EN" "http://www.w3.org/Graphics/SVG/1.1/DTD/svg11.dtd">
<svg width="100%" height="100%" viewBox="0 0 107 38" version="1.1" xmlns="http://www.w3.org/2000/svg" xmlns:xlink="http://www.w3.org/1999/xlink" xml:space="preserve" xmlns:serif="http://www.serif.com/" style="fill-rule:evenodd;clip-rule:evenodd;stroke-linejoin:round;stroke-miterlimit:2;">
    <g transform="matrix(1,0,0,1,0,-146.81)">
        <g id="B1">
            <path d="M106.293,183.273L106.293,147.887C106.293,147.292 105.811,146.81 105.216,146.81L0,146.81L0,184.349L105.216,184.349C105.811,184.349 106.293,183.867 106.293,183.273Z" style="fill:rgb(196,77,53);fill-rule:nonzero;"/>
            <path d="M0,159.785L0,146.81L60.22,146.81C10.18,149.896 5.605,149.492 1.995,153.272C1.089,154.22 0.439,156.644 0,159.785Z" style="fill:rgb(219,104,74);fill-rule:nonzero;"/>
            <path d="M105.216,184.349L42.978,184.349C88.3,182.065 92.793,184.349 98.847,179.127C103.754,174.896 101.97,155.012 101.016,146.81L105.216,146.81C105.811,146.81 106.293,147.292 106.293,147.887L106.293,183.273C106.293,183.867 105.811,184.349 105.216,184.349Z" style="fill:rgb(219,104,74);fill-rule:nonzero;"/>
            <path d="M32.82,161.964C30.017,161.964 27.744,160.373 27.744,158.41C27.744,156.448 30.017,154.857 32.82,154.857C35.624,154.857 37.897,156.448 37.897,158.41C37.897,160.373 35.624,161.964 32.82,161.964Z" style="fill:rgb(241,131,95);fill-rule:nonzero;"/>
            <path d="M67.448,172.467C66.111,172.467 65.028,171.546 65.028,170.411C65.028,169.275 66.111,168.354 67.448,168.354C68.785,168.354 69.868,169.275 69.868,170.411C69.868,171.546 68.785,172.467 67.448,172.467Z" style="fill:rgb(142,52,37);fill-rule:nonzero;"/>
            <path d="M91.57,153.252C89.893,153.252 88.534,154.406 88.534,155.831C88.534,157.256 89.893,158.41 91.57,158.41C93.247,158.41 94.606,157.256 94.606,155.831C94.606,154.406 93.247,153.252 91.57,153.252Z" style="fill:rgb(244,125,66);fill-rule:nonzero;"/>
            <path d="M17.154,170.411C16.029,170.411 15.116,171.075 15.116,171.895C15.116,172.715 16.029,173.38 17.154,173.38C18.279,173.38 19.192,172.715 19.192,171.895C19.192,171.075 18.279,170.411 17.154,170.411Z" style="fill:rgb(244,125,66);fill-rule:nonzero;"/>
            <path d="M42.978,171.263C41.873,171.263 40.977,170.501 40.977,169.562C40.977,168.623 41.873,167.861 42.978,167.861C44.084,167.861 44.98,168.623 44.98,169.562C44.98,170.501 44.084,171.263 42.978,171.263Z" style="fill:rgb(142,52,37);fill-rule:nonzero;"/>
        </g>
    </g>
</svg>
