<?xml version="1.0" encoding="UTF-8" standalone="no"?>
<!DOCTYPE svg PUBLIC "-//W3C//DTD SVG 1.1//EN" "http://www.w3.org/Graphics/SVG/1.1/DTD/svg11.dtd">
<svg width="100%" height="100%" viewBox="0 0 110 38" version="1.1" xmlns="http://www.w3.org/2000/svg" xmlns:xlink="http://www.w3.org/1999/xlink" xml:space="preserve" xmlns:serif="http://www.serif.com/" style="fill-rule:evenodd;clip-rule:evenodd;stroke-linejoin:round;stroke-miterlimit:2;">
    <g transform="matrix(1,0,0,1,-228,-146.81)">
        <g id="B3" transform="matrix(1,0,0,1,115.703,0)">
            <path d="M222.206,146.832L222.089,146.81L113.373,146.81C112.779,146.81 112.297,147.292 112.297,147.887L112.297,183.273C112.297,183.867 112.779,184.349 113.373,184.349L222.089,184.349L222.212,184.327L222.212,183.522L222.206,183.522L222.206,146.832Z" style="fill:rgb(196,77,53);fill-rule:nonzero;"/>
            <path d="M112.297,147.887C112.297,147.369 112.663,146.936 113.15,146.834C112.663,146.936 112.297,147.369 112.297,147.887Z" style="fill:rgb(151,83,63);fill-rule:nonzero;"/>
            <path d="M116.785,184.349L113.373,184.349C112.779,184.349 112.297,183.867 112.297,183.273L112.297,147.887C112.297,147.369 112.663,146.936 113.15,146.834C113.222,146.818 113.297,146.81 113.373,146.81L177.093,146.81C127.053,149.896 122.478,149.492 118.868,153.272C115.823,156.461 115.642,176.265 116.785,184.349Z" style="fill:rgb(219,104,74);fill-rule:nonzero;"/>
            <path d="M222.089,184.349L159.851,184.349C205.172,182.065 209.665,184.349 215.72,179.127C220.627,174.896 218.842,155.012 217.889,146.81L222.089,146.81L222.206,146.832L222.206,183.522L222.212,183.522L222.212,184.327L222.089,184.349Z" style="fill:rgb(219,104,74);fill-rule:nonzero;"/>
            <path d="M132.325,169.562C129.522,169.562 127.249,167.971 127.249,166.008C127.249,164.046 129.522,162.455 132.325,162.455C135.128,162.455 137.401,164.046 137.401,166.008C137.401,167.971 135.128,169.562 132.325,169.562Z" style="fill:rgb(241,131,95);fill-rule:nonzero;"/>
            <path d="M165.729,160.69C164.624,160.69 163.727,159.928 163.727,158.989C163.727,158.05 164.624,157.288 165.729,157.288C166.835,157.288 167.731,158.05 167.731,158.989C167.731,159.928 166.835,160.69 165.729,160.69Z" style="fill:rgb(142,52,37);fill-rule:nonzero;"/>
            <path d="M208.443,153.252C206.766,153.252 205.407,154.406 205.407,155.831C205.407,157.256 206.766,158.41 208.443,158.41C210.12,158.41 211.479,157.256 211.479,155.831C211.479,154.406 210.12,153.252 208.443,153.252Z" style="fill:rgb(244,125,66);fill-rule:nonzero;"/>
            <path d="M149.693,174.346C148.568,174.346 147.656,175.011 147.656,175.831C147.656,176.651 148.568,177.316 149.693,177.316C150.819,177.316 151.731,176.651 151.731,175.831C151.731,175.011 150.819,174.346 149.693,174.346Z" style="fill:rgb(244,125,66);fill-rule:nonzero;"/>
            <path d="M189.83,172.861C188.704,172.861 187.792,173.526 187.792,174.346C187.792,175.166 188.704,175.831 189.83,175.831C190.955,175.831 191.867,175.166 191.867,174.346C191.867,173.526 190.955,172.861 189.83,172.861Z" style="fill:rgb(244,125,66);fill-rule:nonzero;"/>
        </g>
    </g>
</svg>
