<!--?xml version="1.0" encoding="UTF-8" standalone="no"?--><svg width="100%" height="100%" viewBox="0 0 1659 1255" version="1.1" xmlns="http://www.w3.org/2000/svg" xmlns:xlink="http://www.w3.org/1999/xlink" xml:space="preserve" xmlns:serif="http://www.serif.com/" style="fill-rule: evenodd; clip-rule: evenodd; stroke-linecap: round; stroke-linejoin: round; stroke-miterlimit: 1.5;" class=""><path id="Artboard1" width="1658.33" height="1254.17" style="fill:none;" d="M0 0 L1658.33 0 L1658.33 1254.17 L0 1254.17 Z" class="uuKIcVDM_0"></path><path d="M80.635,852.687l0,331.495l1360.88,0l0,-779.406" style="fill:none;stroke:#000;stroke-width:18.8px;" class="uuKIcVDM_1"></path><g id="Layer1"><path d="M392.341,423.871l560.401,-246.869l543.614,250.914l-7.754,-55.177l-535.86,-261.475l-554.039,259.569l-6.362,53.038Z" style="fill:none;stroke:#000;stroke-width:62.34px;" class="uuKIcVDM_2"></path><path d="M422.478,689.396l-395.579,190.923l7.979,16.968l387.245,-186.756l0.355,-21.135Z" style="fill:none;stroke:#000;stroke-width:21.69px;stroke-linecap:square;" class="uuKIcVDM_3"></path></g><path d="M878.933,1184.18l0,-283.589l147.617,0l0,283.589" style="fill:none;stroke:#000;stroke-width:10.53px;stroke-linecap:butt;" class="uuKIcVDM_4"></path><path width="199.616" height="141" style="fill:none;stroke:#000;stroke-width:4.17px;" d="M541.816 607.489 L741.432 607.489 L741.432 748.489 L541.816 748.489 Z" class="uuKIcVDM_5"></path><path width="199.616" height="141" style="fill:none;stroke:#000;stroke-width:4.17px;" d="M842.321 607.489 L1041.9370000000001 607.489 L1041.9370000000001 748.489 L842.321 748.489 Z" class="uuKIcVDM_6"></path><path width="199.616" height="141" style="fill:none;stroke:#000;stroke-width:4.17px;" d="M1142.83 607.489 L1342.446 607.489 L1342.446 748.489 L1142.83 748.489 Z" class="uuKIcVDM_7"></path><path width="275.935" height="106.481" style="fill:none;stroke:#000;stroke-width:4.17px;" d="M1096.07 942.13 L1372.0049999999999 942.13 L1372.0049999999999 1048.6109999999999 L1096.07 1048.6109999999999 Z" class="uuKIcVDM_8"></path><path width="275.935" height="106.481" style="fill:none;stroke:#000;stroke-width:4.17px;" d="M533.483 942.13 L809.4179999999999 942.13 L809.4179999999999 1048.6109999999999 L533.483 1048.6109999999999 Z" class="uuKIcVDM_9"></path><path d="M850.658,875l204.167,0" style="fill:none;stroke:#000;stroke-width:10.14px;stroke-linecap:square;" class="uuKIcVDM_10"></path><g id="Layer5"><path width="70.833" height="12.5" style="fill:none;stroke:#000;stroke-width:2.6px;stroke-linecap:square;" d="M918.75 1070.83 L989.583 1070.83 L989.583 1083.33 L918.75 1083.33 Z" class="uuKIcVDM_11"></path><path d="M995.833,972.917c0,-17.259 -18.654,-31.25 -41.666,-31.25c-23.012,0 -41.667,13.991 -41.667,31.25l83.333,0Z" style="fill:none;stroke:#000;stroke-width:2.74px;stroke-linecap:square;" class="uuKIcVDM_12"></path><path style="fill:none;stroke:#000;stroke-width:7.25px;stroke-linecap:square;" d="M1000,1039.94A6.61,6.61 0,1,1 1013.22,1039.94A6.61,6.61 0,1,1 1000,1039.94" class="uuKIcVDM_13"></path></g><g id="Layer6"><path width="300" height="290.432" style="fill:none;stroke:#000;stroke-width:11.58px;stroke-linecap:square;" d="M116.667 895.833 L416.66700000000003 895.833 L416.66700000000003 1186.2649999999999 L116.667 1186.2649999999999 Z" class="uuKIcVDM_14"></path></g><path d="M425,706.063l0,-260.23" style="fill:none;stroke:#000;stroke-width:18.75px;stroke-linecap:square;" class="uuKIcVDM_15"></path><path width="29.167" height="1.389" style="fill:none;stroke:#000;stroke-width:2.02px;stroke-linecap:square;" d="M252.083 1048.61 L281.25 1048.61 L281.25 1049.9989999999998 L252.083 1049.9989999999998 Z" class="uuKIcVDM_16"></path><path width="196.067" height="20.833" style="fill:none;stroke:#000;stroke-width:24.57px;stroke-linecap:square;" d="M854.708 1175.85 L1050.775 1175.85 L1050.775 1196.683 L854.708 1196.683 Z" class="uuKIcVDM_17"></path><g id="Layer3"><path d="M801.683,477.687l286.647,0l0,-145.062l-143.323,-50.771l-143.324,50.771l0,145.062Z" style="fill:none;stroke:#000;stroke-width:3.91px;" class="uuKIcVDM_18"></path><path d="M675.598,477.687l70.834,0l-0.474,-117.35l-70.36,28.637l0,88.713Z" style="fill:none;stroke:#000;stroke-width:4.17px;" class="uuKIcVDM_19"></path><path d="M1213.1,477.687l-70.833,0l0.473,-117.35l70.36,28.637l0,88.713Z" style="fill:none;stroke:#000;stroke-width:4.17px;" class="uuKIcVDM_20"></path></g><g id="Layer4"><path d="M944.348,477.687l0.659,-195.833l0,106.457l143.323,-54.398" style="fill:none;stroke:#000;stroke-width:2.17px;stroke-linecap:butt;" class="uuKIcVDM_21"></path><path d="M944.348,387.5l-143.323,-54.167" style="fill:none;stroke:#000;stroke-width:2.16px;stroke-linecap:butt;" class="uuKIcVDM_22"></path></g><style data-made-with="vivus-instant">.uuKIcVDM_0{stroke-dasharray:5825 5827;stroke-dashoffset:5826;}.startMotif .uuKIcVDM_0{animation:uuKIcVDM_draw 2740ms ease-in-out 0ms forwards;}.uuKIcVDM_1{stroke-dasharray:2472 2474;stroke-dashoffset:2473;}.startMotif .uuKIcVDM_1{animation:uuKIcVDM_draw 2740ms ease-in-out 34ms forwards;}.uuKIcVDM_2{stroke-dasharray:2529 2531;stroke-dashoffset:2530;}.startMotif .uuKIcVDM_2{animation:uuKIcVDM_draw 2740ms ease-in-out 69ms forwards;}.uuKIcVDM_3{stroke-dasharray:910 912;stroke-dashoffset:911;}.startMotif .uuKIcVDM_3{animation:uuKIcVDM_draw 2740ms ease-in-out 103ms forwards;}.uuKIcVDM_4{stroke-dasharray:715 717;stroke-dashoffset:716;}.startMotif .uuKIcVDM_4{animation:uuKIcVDM_draw 2740ms ease-in-out 138ms forwards;}.uuKIcVDM_5{stroke-dasharray:682 684;stroke-dashoffset:683;}.startMotif .uuKIcVDM_5{animation:uuKIcVDM_draw 2740ms ease-in-out 172ms forwards;}.uuKIcVDM_6{stroke-dasharray:682 684;stroke-dashoffset:683;}.startMotif .uuKIcVDM_6{animation:uuKIcVDM_draw 2740ms ease-in-out 207ms forwards;}.uuKIcVDM_7{stroke-dasharray:682 684;stroke-dashoffset:683;}.startMotif .uuKIcVDM_7{animation:uuKIcVDM_draw 2740ms ease-in-out 241ms forwards;}.uuKIcVDM_8{stroke-dasharray:765 767;stroke-dashoffset:766;}.startMotif .uuKIcVDM_8{animation:uuKIcVDM_draw 2740ms ease-in-out 276ms forwards;}.uuKIcVDM_9{stroke-dasharray:765 767;stroke-dashoffset:766;}.startMotif .uuKIcVDM_9{animation:uuKIcVDM_draw 2740ms ease-in-out 310ms forwards;}.uuKIcVDM_10{stroke-dasharray:205 207;stroke-dashoffset:206;}.startMotif .uuKIcVDM_10{animation:uuKIcVDM_draw 2740ms ease-in-out 345ms forwards;}.uuKIcVDM_11{stroke-dasharray:167 169;stroke-dashoffset:168;}.startMotif .uuKIcVDM_11{animation:uuKIcVDM_draw 2740ms ease-in-out 380ms forwards;}.uuKIcVDM_12{stroke-dasharray:199 201;stroke-dashoffset:200;}.startMotif .uuKIcVDM_12{animation:uuKIcVDM_draw 2740ms ease-in-out 414ms forwards;}.uuKIcVDM_13{stroke-dasharray:42 44;stroke-dashoffset:43;}.startMotif .uuKIcVDM_13{animation:uuKIcVDM_draw 2740ms ease-in-out 449ms forwards;}.uuKIcVDM_14{stroke-dasharray:1181 1183;stroke-dashoffset:1182;}.startMotif .uuKIcVDM_14{animation:uuKIcVDM_draw 2740ms ease-in-out 483ms forwards;}.uuKIcVDM_15{stroke-dasharray:261 263;stroke-dashoffset:262;}.startMotif .uuKIcVDM_15{animation:uuKIcVDM_draw 2740ms ease-in-out 518ms forwards;}.uuKIcVDM_16{stroke-dasharray:62 64;stroke-dashoffset:63;}.startMotif .uuKIcVDM_16{animation:uuKIcVDM_draw 2740ms ease-in-out 552ms forwards;}.uuKIcVDM_17{stroke-dasharray:434 436;stroke-dashoffset:435;}.startMotif .uuKIcVDM_17{animation:uuKIcVDM_draw 2740ms ease-in-out 587ms forwards;}.uuKIcVDM_18{stroke-dasharray:881 883;stroke-dashoffset:882;}.startMotif .uuKIcVDM_18{animation:uuKIcVDM_draw 2740ms ease-in-out 621ms forwards;}.uuKIcVDM_19{stroke-dasharray:353 355;stroke-dashoffset:354;}.startMotif .uuKIcVDM_19{animation:uuKIcVDM_draw 2740ms ease-in-out 656ms forwards;}.uuKIcVDM_20{stroke-dasharray:353 355;stroke-dashoffset:354;}.startMotif .uuKIcVDM_20{animation:uuKIcVDM_draw 2740ms ease-in-out 690ms forwards;}.uuKIcVDM_21{stroke-dasharray:456 458;stroke-dashoffset:457;}.startMotif .uuKIcVDM_21{animation:uuKIcVDM_draw 2740ms ease-in-out 725ms forwards;}.uuKIcVDM_22{stroke-dasharray:154 156;stroke-dashoffset:155;}.startMotif .uuKIcVDM_22{animation:uuKIcVDM_draw 2740ms ease-in-out 760ms forwards;}@keyframes uuKIcVDM_draw{100%{stroke-dashoffset:0;}}@keyframes uuKIcVDM_fade{0%{stroke-opacity:1;}94.8051948051948%{stroke-opacity:1;}100%{stroke-opacity:0;}}</style></svg>