<?xml version="1.0" encoding="UTF-8" standalone="no"?><!DOCTYPE svg PUBLIC "-//W3C//DTD SVG 1.1//EN" "http://www.w3.org/Graphics/SVG/1.1/DTD/svg11.dtd"><svg width="100%" height="100%" viewBox="0 0 1659 1255" version="1.1" xmlns="http://www.w3.org/2000/svg" xmlns:xlink="http://www.w3.org/1999/xlink" xml:space="preserve" xmlns:serif="http://www.serif.com/" style="fill-rule:evenodd;clip-rule:evenodd;stroke-linecap:round;stroke-linejoin:round;stroke-miterlimit:1.5;"><rect id="Artboard1" x="0" y="0" width="1658.33" height="1254.17" style="fill:none;"/><path d="M80.635,852.687l0,331.495l1360.88,0l0,-779.406" style="fill:none;stroke:#000;stroke-width:18.8px;"/><g id="Layer1"><path d="M392.341,423.871l560.401,-246.869l543.614,250.914l-7.754,-55.177l-535.86,-261.475l-554.039,259.569l-6.362,53.038Z" style="fill:none;stroke:#000;stroke-width:62.34px;"/><path d="M422.478,689.396l-395.579,190.923l7.979,16.968l387.245,-186.756l0.355,-21.135Z" style="fill:none;stroke:#000;stroke-width:21.69px;stroke-linecap:square;"/></g><path d="M878.933,1184.18l0,-283.589l147.617,0l0,283.589" style="fill:none;stroke:#000;stroke-width:10.53px;stroke-linecap:butt;"/><rect x="541.816" y="607.489" width="199.616" height="141" style="fill:none;stroke:#000;stroke-width:4.17px;"/><rect x="842.321" y="607.489" width="199.616" height="141" style="fill:none;stroke:#000;stroke-width:4.17px;"/><rect x="1142.83" y="607.489" width="199.616" height="141" style="fill:none;stroke:#000;stroke-width:4.17px;"/><rect x="1096.07" y="942.13" width="275.935" height="106.481" style="fill:none;stroke:#000;stroke-width:4.17px;"/><rect x="533.483" y="942.13" width="275.935" height="106.481" style="fill:none;stroke:#000;stroke-width:4.17px;"/><path d="M850.658,875l204.167,0" style="fill:none;stroke:#000;stroke-width:10.14px;stroke-linecap:square;"/><g id="Layer5"><rect x="918.75" y="1070.83" width="70.833" height="12.5" style="fill:#ebebeb;stroke:#000;stroke-width:2.6px;stroke-linecap:square;"/><path d="M995.833,972.917c0,-17.259 -18.654,-31.25 -41.666,-31.25c-23.012,0 -41.667,13.991 -41.667,31.25l83.333,0Z" style="fill:#ebebeb;stroke:#000;stroke-width:2.74px;stroke-linecap:square;"/><circle cx="1006.61" cy="1039.94" r="6.61" style="fill:#ebebeb;stroke:#000;stroke-width:7.25px;stroke-linecap:square;"/></g><g id="Layer6"><rect x="116.667" y="895.833" width="300" height="290.432" style="fill:none;stroke:#000;stroke-width:11.58px;stroke-linecap:square;"/></g><path d="M425,706.063l0,-260.23" style="fill:none;stroke:#000;stroke-width:18.75px;stroke-linecap:square;"/><rect x="252.083" y="1048.61" width="29.167" height="1.389" style="fill:none;stroke:#000;stroke-width:2.02px;stroke-linecap:square;"/><rect x="854.708" y="1175.85" width="196.067" height="20.833" style="fill:none;stroke:#000;stroke-width:24.57px;stroke-linecap:square;"/><g id="Layer3"><path d="M801.683,477.687l286.647,0l0,-145.062l-143.323,-50.771l-143.324,50.771l0,145.062Z" style="fill:none;stroke:#000;stroke-width:3.91px;"/><path d="M675.598,477.687l70.834,0l-0.474,-117.35l-70.36,28.637l0,88.713Z" style="fill:none;stroke:#000;stroke-width:4.17px;"/><path d="M1213.1,477.687l-70.833,0l0.473,-117.35l70.36,28.637l0,88.713Z" style="fill:none;stroke:#000;stroke-width:4.17px;"/></g><g id="Layer4"><path d="M944.348,477.687l0.659,-195.833l0,106.457l143.323,-54.398" style="fill:none;stroke:#000;stroke-width:2.17px;stroke-linecap:butt;"/><path d="M944.348,387.5l-143.323,-54.167" style="fill:none;stroke:#000;stroke-width:2.16px;stroke-linecap:butt;"/></g></svg>