<?xml version="1.0" encoding="UTF-8" standalone="no"?>
<!DOCTYPE svg PUBLIC "-//W3C//DTD SVG 1.1//EN" "http://www.w3.org/Graphics/SVG/1.1/DTD/svg11.dtd">
<svg width="100%" height="100%" viewBox="0 0 555 217" version="1.1" xmlns="http://www.w3.org/2000/svg" xmlns:xlink="http://www.w3.org/1999/xlink" xml:space="preserve" xmlns:serif="http://www.serif.com/" style="fill-rule:evenodd;clip-rule:evenodd;stroke-linejoin:round;stroke-miterlimit:2;">
    <g transform="matrix(1,0,0,1,0,-184.349)">
        <path d="M193.257,383.151C192.962,382.981 192.661,382.812 192.385,382.633C192.029,382.403 191.56,382.292 191.089,382.292C190.759,382.292 190.429,382.346 190.135,382.452C189.699,382.286 189.171,382.187 188.542,382.187C188.355,382.187 188.159,382.196 187.954,382.215C187.32,382.271 186.728,382.396 186.145,382.524C186.947,381.3 188.712,380.45 190.761,380.45C193.109,380.45 195.085,381.566 195.665,383.081C195.542,383.037 195.419,382.993 195.295,382.949C195.099,382.879 194.832,382.847 194.558,382.847C194.132,382.847 193.686,382.925 193.447,383.061L193.257,383.151Z" style="fill:rgb(162,84,55);fill-rule:nonzero;"/>
        <g id="Artboard1" transform="matrix(0.978862,0,0,0.998389,0,0.296964)">
            <rect x="0" y="184.349" width="566.985" height="216.651" style="fill:none;"/>
            <clipPath id="_clip1">
                <rect x="0" y="184.349" width="566.985" height="216.651"/>
            </clipPath>
            <g clip-path="url(#_clip1)">
                <g transform="matrix(1.02159,0,0,1.00161,0,-0.297443)">
                    <path d="M464.658,183.858L222.212,183.522L222.206,183.522L222.206,146.728L0,146.728L0,401L555,401L555,146.933L464.658,146.933L464.658,183.858Z" style="fill:rgb(86,52,41);fill-rule:nonzero;"/>
                </g>
                <g transform="matrix(1.02159,0,0,1.00161,0,-0.297443)">
                    <path d="M47.856,227.201L47.856,191.815C47.856,191.22 47.374,190.738 46.78,190.738L0,190.738L0,228.277L46.78,228.277C47.374,228.277 47.856,227.795 47.856,227.201Z" style="fill:rgb(196,77,53);fill-rule:nonzero;"/>
                </g>
                <g transform="matrix(1.02159,0,0,1.00161,0,-0.297443)">
                    <path d="M0,190.848L0,190.738L1.784,190.738C1.172,190.776 0.598,190.811 0,190.848Z" style="fill:rgb(219,104,74);fill-rule:nonzero;"/>
                </g>
                <g transform="matrix(1.02159,0,0,1.00161,0,-0.297443)">
                    <path d="M46.78,228.277L0,228.277L0,227.601C31.029,226.455 35.13,227.61 40.411,223.055C45.318,218.824 43.533,198.939 42.579,190.738L46.78,190.738C47.374,190.738 47.856,191.22 47.856,191.815L47.856,227.201C47.856,227.795 47.374,228.277 46.78,228.277Z" style="fill:rgb(219,104,74);fill-rule:nonzero;"/>
                </g>
                <g transform="matrix(1.02159,0,0,1.00161,0,-0.297443)">
                    <path d="M33.134,197.179C31.457,197.179 30.098,198.334 30.098,199.759C30.098,201.183 31.457,202.338 33.134,202.338C34.811,202.338 36.17,201.183 36.17,199.759C36.17,198.334 34.811,197.179 33.134,197.179Z" style="fill:rgb(244,125,66);fill-rule:nonzero;"/>
                </g>
                <g transform="matrix(1.02159,0,0,1.00161,0,-0.297443)">
                    <path d="M27.898,220.125C24.381,220.125 21.53,218.199 21.53,215.823C21.53,213.447 24.381,211.521 27.898,211.521C31.415,211.521 34.267,213.447 34.267,215.823C34.267,218.199 31.415,220.125 27.898,220.125Z" style="fill:rgb(241,131,95);fill-rule:nonzero;"/>
                </g>
                <g transform="matrix(1.02159,0,0,1.00161,0,-0.297443)">
                    <path d="M163.652,190.738L54.937,190.738C54.342,190.738 53.86,191.22 53.86,191.815L53.86,227.201C53.86,227.795 54.342,228.277 54.937,228.277L163.652,228.277C164.247,228.277 164.729,227.795 164.729,227.201L164.729,191.815C164.729,191.22 164.247,190.738 163.652,190.738Z" style="fill:rgb(196,77,53);fill-rule:nonzero;"/>
                    <path d="M58.348,228.277L54.937,228.277C54.342,228.277 53.86,227.795 53.86,227.201L53.86,191.815C53.86,191.22 54.342,190.738 54.937,190.738L118.657,190.738C68.616,193.824 64.041,193.42 60.431,197.2C57.386,200.388 57.205,220.193 58.348,228.277Z" style="fill:rgb(219,104,74);fill-rule:nonzero;"/>
                    <path d="M163.652,228.277L120.48,228.277C120.918,227.993 121.352,227.711 121.785,227.43C148.367,226.564 152.295,227.358 157.284,223.055C158.349,222.137 159.098,220.483 159.609,218.37C161.217,219.111 162.927,219.904 164.729,220.744L164.729,227.201C164.729,227.795 164.247,228.277 163.652,228.277ZM107.514,228.277L101.415,228.277C103.714,228.161 105.909,228.057 108.003,227.963C107.84,228.068 107.678,228.172 107.514,228.277ZM164.729,216.407C163.14,215.703 161.65,215.045 160.259,214.431C160.342,213.649 160.406,212.837 160.454,212.005C161.723,212.582 163.155,213.233 164.729,213.952L164.729,216.407ZM164.729,209.797C163.16,209.099 161.766,208.47 160.568,207.913C160.568,207.602 160.567,207.291 160.565,206.978L164.729,204.221L164.729,209.797ZM160.366,201.112C160.135,197.064 159.753,193.322 159.452,190.738L163.652,190.738C164.247,190.738 164.729,191.22 164.729,191.815L164.729,196.371L160.366,201.112Z" style="fill:rgb(219,104,74);fill-rule:nonzero;"/>
                    <path d="M91.257,205.892C88.453,205.892 86.18,204.301 86.18,202.338C86.18,200.375 88.453,198.784 91.257,198.784C94.06,198.784 96.333,200.375 96.333,202.338C96.333,204.301 94.06,205.892 91.257,205.892Z" style="fill:rgb(241,131,95);fill-rule:nonzero;"/>
                    <path d="M125.885,216.394C124.548,216.394 123.464,215.474 123.464,214.338C123.464,213.203 124.548,212.282 125.885,212.282C127.221,212.282 128.304,213.203 128.304,214.338C128.304,215.474 127.221,216.394 125.885,216.394Z" style="fill:rgb(142,52,37);fill-rule:nonzero;"/>
                    <path d="M150.007,197.179C148.33,197.179 146.97,198.334 146.97,199.759C146.97,201.183 148.33,202.338 150.007,202.338C151.683,202.338 153.043,201.183 153.043,199.759C153.043,198.334 151.683,197.179 150.007,197.179Z" style="fill:rgb(244,125,66);fill-rule:nonzero;"/>
                    <path d="M75.59,214.338C74.465,214.338 73.553,215.003 73.553,215.823C73.553,216.643 74.465,217.308 75.59,217.308C76.716,217.308 77.628,216.643 77.628,215.823C77.628,215.003 76.716,214.338 75.59,214.338Z" style="fill:rgb(244,125,66);fill-rule:nonzero;"/>
                </g>
                <g transform="matrix(1.02159,0,0,1.00161,238.128,-0.297443)">
                    <path d="M163.652,190.738L54.937,190.738C54.342,190.738 53.86,191.22 53.86,191.815L53.86,227.201C53.86,227.795 54.342,228.277 54.937,228.277L163.652,228.277C164.247,228.277 164.729,227.795 164.729,227.201L164.729,191.815C164.729,191.22 164.247,190.738 163.652,190.738Z" style="fill:rgb(196,77,53);fill-rule:nonzero;"/>
                    <path d="M58.348,228.277L54.937,228.277C54.342,228.277 53.86,227.795 53.86,227.201L53.86,191.815C53.86,191.22 54.342,190.738 54.937,190.738L118.657,190.738C68.616,193.824 64.041,193.42 60.431,197.2C57.386,200.388 57.205,220.193 58.348,228.277Z" style="fill:rgb(219,104,74);fill-rule:nonzero;"/>
                    <path d="M163.652,228.277L120.48,228.277C120.918,227.993 121.352,227.711 121.785,227.43C148.367,226.564 152.295,227.358 157.284,223.055C158.349,222.137 159.098,220.483 159.609,218.37C161.217,219.111 162.927,219.904 164.729,220.744L164.729,227.201C164.729,227.795 164.247,228.277 163.652,228.277ZM107.514,228.277L101.415,228.277C103.714,228.161 105.909,228.057 108.003,227.963C107.84,228.068 107.678,228.172 107.514,228.277ZM164.729,216.407C163.14,215.703 161.65,215.045 160.259,214.431C160.342,213.649 160.406,212.837 160.454,212.005C161.723,212.582 163.155,213.233 164.729,213.952L164.729,216.407ZM164.729,209.797C163.16,209.099 161.766,208.47 160.568,207.913C160.568,207.602 160.567,207.291 160.565,206.978L164.729,204.221L164.729,209.797ZM160.366,201.112C160.135,197.064 159.753,193.322 159.452,190.738L163.652,190.738C164.247,190.738 164.729,191.22 164.729,191.815L164.729,196.371L160.366,201.112Z" style="fill:rgb(219,104,74);fill-rule:nonzero;"/>
                    <path d="M91.257,205.892C88.453,205.892 86.18,204.301 86.18,202.338C86.18,200.375 88.453,198.784 91.257,198.784C94.06,198.784 96.333,200.375 96.333,202.338C96.333,204.301 94.06,205.892 91.257,205.892Z" style="fill:rgb(241,131,95);fill-rule:nonzero;"/>
                    <path d="M125.885,216.394C124.548,216.394 123.464,215.474 123.464,214.338C123.464,213.203 124.548,212.282 125.885,212.282C127.221,212.282 128.304,213.203 128.304,214.338C128.304,215.474 127.221,216.394 125.885,216.394Z" style="fill:rgb(142,52,37);fill-rule:nonzero;"/>
                    <path d="M150.007,197.179C148.33,197.179 146.97,198.334 146.97,199.759C146.97,201.183 148.33,202.338 150.007,202.338C151.683,202.338 153.043,201.183 153.043,199.759C153.043,198.334 151.683,197.179 150.007,197.179Z" style="fill:rgb(244,125,66);fill-rule:nonzero;"/>
                    <path d="M75.59,214.338C74.465,214.338 73.553,215.003 73.553,215.823C73.553,216.643 74.465,217.308 75.59,217.308C76.716,217.308 77.628,216.643 77.628,215.823C77.628,215.003 76.716,214.338 75.59,214.338Z" style="fill:rgb(244,125,66);fill-rule:nonzero;"/>
                </g>
                <g transform="matrix(1.02159,0,0,1.00161,0,-0.297443)">
                    <path d="M171.81,190.738C171.215,190.738 170.733,191.22 170.733,191.815L170.733,227.201C170.733,227.795 171.215,228.277 171.81,228.277L280.525,228.277L280.583,228.265L280.583,190.75L280.525,190.738L171.81,190.738Z" style="fill:rgb(196,77,53);fill-rule:nonzero;"/>
                </g>
                <g transform="matrix(1.02159,0,0,1.00161,0,-0.297443)">
                    <path d="M175.221,228.277L171.81,228.277C171.215,228.277 170.733,227.795 170.733,227.201C170.733,227.795 171.215,228.277 171.81,228.277L175.221,228.277Z" style="fill:rgb(151,83,63);fill-rule:nonzero;"/>
                </g>
                <g transform="matrix(1.02159,0,0,1.00161,0,-0.297443)">
                    <path d="M175.221,228.277L171.81,228.277C171.215,228.277 170.733,227.795 170.733,227.201L170.733,223.564C172.093,224.207 173.491,224.871 174.921,225.554C175.007,226.559 175.107,227.475 175.221,228.277ZM174.649,220.863C173.303,220.248 171.995,219.656 170.733,219.087L170.733,216.714C171.967,217.285 173.254,217.884 174.59,218.507C174.603,219.307 174.623,220.095 174.649,220.863ZM174.592,214.16C173.237,213.559 171.949,212.99 170.733,212.454L170.733,191.815C170.733,191.22 171.215,190.738 171.81,190.738L235.529,190.738C185.489,193.824 180.914,193.42 177.304,197.2C175.524,199.063 174.723,206.603 174.592,214.16Z" style="fill:rgb(219,104,74);fill-rule:nonzero;"/>
                </g>
                <g transform="matrix(1.02159,0,0,1.00161,0,-0.297443)">
                    <path d="M280.525,228.277L218.287,228.277C263.609,225.993 268.102,228.277 274.156,223.055C279.063,218.824 277.278,198.939 276.325,190.738L280.525,190.738L280.583,190.75L280.583,228.265L280.525,228.277Z" style="fill:rgb(219,104,74);fill-rule:nonzero;"/>
                </g>
                <g transform="matrix(1.02159,0,0,1.00161,0,-0.297443)">
                    <path d="M190.761,213.49C187.958,213.49 185.685,211.899 185.685,209.936C185.685,207.973 187.958,206.382 190.761,206.382C193.565,206.382 195.837,207.973 195.837,209.936C195.837,211.899 193.565,213.49 190.761,213.49Z" style="fill:rgb(241,131,95);fill-rule:nonzero;"/>
                </g>
                <g transform="matrix(1.02159,0,0,1.00161,0,-0.297443)">
                    <path d="M224.165,204.617C223.06,204.617 222.164,203.856 222.164,202.917C222.164,201.978 223.06,201.216 224.165,201.216C225.271,201.216 226.167,201.978 226.167,202.917C226.167,203.856 225.271,204.617 224.165,204.617Z" style="fill:rgb(142,52,37);fill-rule:nonzero;"/>
                </g>
                <g transform="matrix(1.02159,0,0,1.00161,0,-0.297443)">
                    <path d="M101.415,215.191C100.309,215.191 99.413,214.429 99.413,213.49C99.413,212.551 100.309,211.789 101.415,211.789C102.521,211.789 103.417,212.551 103.417,213.49C103.417,214.429 102.521,215.191 101.415,215.191Z" style="fill:rgb(142,52,37);fill-rule:nonzero;"/>
                </g>
                <g transform="matrix(1.02159,0,0,1.00161,0,-0.297443)">
                    <path d="M266.879,197.179C265.202,197.179 263.843,198.334 263.843,199.759C263.843,201.183 265.202,202.338 266.879,202.338C268.556,202.338 269.915,201.183 269.915,199.759C269.915,198.334 268.556,197.179 266.879,197.179Z" style="fill:rgb(244,125,66);fill-rule:nonzero;"/>
                </g>
                <g transform="matrix(1.02159,0,0,1.00161,0,-0.297443)">
                    <path d="M208.129,218.274C207.004,218.274 206.092,218.939 206.092,219.759C206.092,220.579 207.004,221.244 208.129,221.244C209.255,221.244 210.167,220.579 210.167,219.759C210.167,218.939 209.255,218.274 208.129,218.274Z" style="fill:rgb(244,125,66);fill-rule:nonzero;"/>
                </g>
                <g transform="matrix(1.02159,0,0,1.00161,0,-0.297443)">
                    <path d="M248.266,216.789C247.141,216.789 246.228,217.454 246.228,218.274C246.228,219.094 247.141,219.759 248.266,219.759C249.391,219.759 250.303,219.094 250.303,218.274C250.303,217.454 249.391,216.789 248.266,216.789Z" style="fill:rgb(244,125,66);fill-rule:nonzero;"/>
                </g>
                <g transform="matrix(1.02159,0,0,1.00161,0,-0.297443)">
                    <path d="M514.27,190.738L405.555,190.738C405.189,190.738 404.882,190.932 404.688,191.21L404.688,227.805C404.882,228.083 405.189,228.277 405.555,228.277L514.27,228.277C514.864,228.277 515.346,227.795 515.346,227.201L515.346,191.815C515.346,191.22 514.864,190.738 514.27,190.738Z" style="fill:rgb(196,77,53);fill-rule:nonzero;"/>
                </g>
                <g transform="matrix(1.02159,0,0,1.00161,0,-0.297443)">
                    <path d="M408.966,228.277L405.555,228.277C405.54,228.277 405.526,228.277 405.512,228.276C405.165,228.262 404.874,228.072 404.688,227.805L404.688,191.21C404.882,190.932 405.189,190.738 405.555,190.738L469.274,190.738C419.234,193.824 414.659,193.42 411.049,197.2C408.004,200.388 407.823,220.193 408.966,228.277Z" style="fill:rgb(219,104,74);fill-rule:nonzero;"/>
                </g>
                <g transform="matrix(1.02159,0,0,1.00161,0,-0.297443)">
                    <path d="M514.291,228.277C514.536,228.272 514.76,228.186 514.939,228.044C514.76,228.186 514.536,228.272 514.291,228.277Z" style="fill:rgb(151,83,63);fill-rule:nonzero;"/>
                </g>
                <g transform="matrix(1.02159,0,0,1.00161,0,-0.297443)">
                    <path d="M514.27,228.277L452.032,228.277C497.353,225.993 501.846,228.277 507.901,223.055C512.807,218.824 511.023,198.939 510.069,190.738L514.27,190.738C514.864,190.738 515.346,191.22 515.346,191.815L515.346,227.201C515.346,227.542 515.187,227.847 514.939,228.044C514.76,228.186 514.536,228.272 514.291,228.277L514.27,228.277Z" style="fill:rgb(219,104,74);fill-rule:nonzero;"/>
                </g>
                <g transform="matrix(1.02159,0,0,1.00161,0,-0.297443)">
                    <path d="M474.35,209.446C471.547,209.446 469.274,207.855 469.274,205.892C469.274,203.929 471.547,202.338 474.35,202.338C477.154,202.338 479.426,203.929 479.426,205.892C479.426,207.855 477.154,209.446 474.35,209.446Z" style="fill:rgb(241,131,95);fill-rule:nonzero;"/>
                </g>
                <g transform="matrix(1.02159,0,0,1.00161,0,-0.297443)">
                    <path d="M457.91,204.617C456.805,204.617 455.908,203.856 455.908,202.917C455.908,201.978 456.805,201.216 457.91,201.216C459.016,201.216 459.912,201.978 459.912,202.917C459.912,203.856 459.016,204.617 457.91,204.617Z" style="fill:rgb(142,52,37);fill-rule:nonzero;"/>
                </g>
                <g transform="matrix(1.02159,0,0,1.00161,0,-0.297443)">
                    <path d="M498.63,214.807C496.665,214.807 495.072,213.454 495.072,211.784C495.072,210.115 496.665,208.761 498.63,208.761C500.595,208.761 502.188,210.115 502.188,211.784C502.188,213.454 500.595,214.807 498.63,214.807Z" style="fill:rgb(142,52,37);fill-rule:nonzero;"/>
                </g>
                <g transform="matrix(1.02159,0,0,1.00161,0,-0.297443)">
                    <path d="M427.939,204.64C426.263,204.64 424.903,205.794 424.903,207.219C424.903,208.643 426.263,209.798 427.939,209.798C429.616,209.798 430.976,208.643 430.976,207.219C430.976,205.794 429.616,204.64 427.939,204.64Z" style="fill:rgb(244,125,66);fill-rule:nonzero;"/>
                </g>
                <g transform="matrix(1.02159,0,0,1.00161,0,-0.297443)">
                    <path d="M441.874,218.274C440.749,218.274 439.837,218.939 439.837,219.759C439.837,220.579 440.749,221.244 441.874,221.244C443,221.244 443.912,220.579 443.912,219.759C443.912,218.939 443,218.274 441.874,218.274Z" style="fill:rgb(244,125,66);fill-rule:nonzero;"/>
                </g>
                <g transform="matrix(1.02159,0,0,1.00161,0,-0.297443)">
                    <path d="M521.351,191.815L521.351,227.201C521.351,227.795 521.831,228.277 522.427,228.277L555,228.277L555,190.738L522.427,190.738C521.831,190.738 521.351,191.22 521.351,191.815Z" style="fill:rgb(196,77,53);fill-rule:nonzero;"/>
                </g>
                <g transform="matrix(1.02159,0,0,1.00161,0,-0.297443)">
                    <path d="M525.838,228.277L522.427,228.277C521.831,228.277 521.351,227.795 521.351,227.201L521.351,191.815C521.351,191.22 521.831,190.738 522.427,190.738L555,190.738L555,192.606C533.76,193.905 530.569,194.428 527.921,197.2C524.876,200.388 524.695,220.193 525.838,228.277Z" style="fill:rgb(219,104,74);fill-rule:nonzero;"/>
                </g>
                <g transform="matrix(1.02159,0,0,1.00161,0,-0.297443)">
                    <path d="M541.378,213.49C538.575,213.49 536.302,211.899 536.302,209.936C536.302,207.973 538.575,206.382 541.378,206.382C544.182,206.382 546.455,207.973 546.455,209.936C546.455,211.899 544.182,213.49 541.378,213.49Z" style="fill:rgb(241,131,95);fill-rule:nonzero;"/>
                </g>
                <g transform="matrix(1.02159,0,0,1.00161,0,-0.297443)">
                    <path d="M106.293,270.307L106.293,234.921C106.293,234.326 105.811,233.844 105.216,233.844L0,233.844L0,271.383L105.216,271.383C105.811,271.383 106.293,270.901 106.293,270.307Z" style="fill:rgb(196,77,53);fill-rule:nonzero;"/>
                </g>
                <g transform="matrix(1.02159,0,0,1.00161,0,-0.297443)">
                    <path d="M0,246.819L0,233.844L60.22,233.844C10.18,236.93 5.605,236.526 1.995,240.306C1.089,241.254 0.439,243.678 0,246.819Z" style="fill:rgb(219,104,74);fill-rule:nonzero;"/>
                </g>
                <g transform="matrix(1.02159,0,0,1.00161,0,-0.297443)">
                    <path d="M106.293,247.539L106.272,247.539C105.666,247.539 105.248,247.403 105.015,247.215C104.04,247.16 103.053,247.137 102.064,247.136C101.987,244.928 101.851,242.748 101.691,240.728C103.227,239.693 104.761,238.664 106.293,237.64L106.293,247.539Z" style="fill:rgb(219,104,74);fill-rule:nonzero;"/>
                </g>
                <g transform="matrix(1.02159,0,0,1.00161,0,-0.297443)">
                    <path d="M32.82,248.998C30.017,248.998 27.744,247.407 27.744,245.444C27.744,243.482 30.017,241.89 32.82,241.89C35.624,241.89 37.897,243.482 37.897,245.444C37.897,246.024 37.698,246.571 37.347,247.055L34.654,247.055L34.654,248.759C34.085,248.913 33.467,248.998 32.82,248.998Z" style="fill:rgb(241,131,95);fill-rule:nonzero;"/>
                </g>
                <g transform="matrix(1.02159,0,0,1.00161,0,-0.297443)">
                    <path d="M91.57,240.285C89.893,240.285 88.534,241.44 88.534,242.865C88.534,244.289 89.893,245.444 91.57,245.444C93.247,245.444 94.606,244.289 94.606,242.865C94.606,241.44 93.247,240.285 91.57,240.285Z" style="fill:rgb(244,125,66);fill-rule:nonzero;"/>
                </g>
                <g transform="matrix(1.02159,0,0,1.00161,0,-0.297443)">
                    <path d="M17.154,257.445C16.029,257.445 15.116,258.109 15.116,258.929C15.116,259.749 16.029,260.415 17.154,260.415C18.279,260.415 19.192,259.749 19.192,258.929C19.192,258.109 18.279,257.445 17.154,257.445Z" style="fill:rgb(244,125,66);fill-rule:nonzero;"/>
                </g>
                <g transform="matrix(1.02159,0,0,1.00161,0,-0.297443)">
                    <path d="M222.089,233.844L113.373,233.844C112.779,233.844 112.297,234.326 112.297,234.921L112.297,270.307C112.297,270.901 112.779,271.383 113.373,271.383L222.089,271.383C222.683,271.383 223.165,270.901 223.165,270.307L223.165,234.921C223.165,234.326 222.683,233.844 222.089,233.844Z" style="fill:rgb(196,77,53);fill-rule:nonzero;"/>
                </g>
                <g transform="matrix(1.02159,0,0,1.00161,0,-0.297443)">
                    <path d="M112.297,248.128L112.297,234.921C112.297,234.326 112.779,233.844 113.373,233.844L177.093,233.844C127.053,236.93 122.478,236.526 118.868,240.306C117.894,241.326 117.213,244.047 116.774,247.539L113.257,247.539C113.165,247.79 112.798,248.025 112.297,248.128Z" style="fill:rgb(219,104,74);fill-rule:nonzero;"/>
                </g>
                <g transform="matrix(1.02159,0,0,1.00161,0,-0.297443)">
                    <path d="M218.965,248.04C218.963,247.988 218.962,247.938 218.96,247.886C219.035,247.926 219.111,247.968 219.186,248.008C219.112,248.018 219.038,248.029 218.965,248.04ZM223.165,245.471C221.673,244.627 220.194,243.799 218.727,242.987C218.664,242.025 218.594,241.086 218.52,240.183C220.064,240.993 221.612,241.811 223.165,242.639L223.165,245.471ZM223.165,237.818C221.431,236.88 219.718,235.964 218.027,235.071C217.98,234.638 217.933,234.228 217.888,233.844L222.089,233.844C222.683,233.844 223.165,234.326 223.165,234.921L223.165,237.818Z" style="fill:rgb(219,104,74);fill-rule:nonzero;"/>
                </g>
                <g transform="matrix(1.02159,0,0,1.00161,0,-0.297443)">
                    <path d="M165.729,247.724C165.7,247.724 165.671,247.723 165.642,247.722C165.631,247.649 165.641,247.572 165.672,247.492L165.746,247.366C165.24,247.28 164.728,247.202 164.211,247.132C163.91,246.834 163.727,246.447 163.727,246.023C163.727,245.084 164.624,244.322 165.729,244.322C166.835,244.322 167.731,245.084 167.731,246.023C167.731,246.962 166.835,247.724 165.729,247.724Z" style="fill:rgb(142,52,37);fill-rule:nonzero;"/>
                </g>
                <g transform="matrix(1.02159,0,0,1.00161,0,-0.297443)">
                    <path d="M208.443,240.285C206.766,240.285 205.407,241.44 205.407,242.865C205.407,244.289 206.766,245.444 208.443,245.444C210.12,245.444 211.479,244.289 211.479,242.865C211.479,241.44 210.12,240.285 208.443,240.285Z" style="fill:rgb(244,125,66);fill-rule:nonzero;"/>
                </g>
                <g transform="matrix(1.02159,0,0,1.00161,0,-0.297443)">
                    <path d="M149.693,261.381C148.568,261.381 147.656,262.045 147.656,262.865C147.656,263.685 148.568,264.35 149.693,264.35C150.819,264.35 151.731,263.685 151.731,262.865C151.731,262.045 150.819,261.381 149.693,261.381Z" style="fill:rgb(244,125,66);fill-rule:nonzero;"/>
                </g>
                <g transform="matrix(1.02159,0,0,1.00161,0,-0.297443)">
                    <path d="M189.83,259.895C188.704,259.895 187.792,260.56 187.792,261.381C187.792,262.2 188.704,262.865 189.83,262.865C190.955,262.865 191.867,262.2 191.867,261.381C191.867,260.56 190.955,259.895 189.83,259.895Z" style="fill:rgb(244,125,66);fill-rule:nonzero;"/>
                </g>
                <g transform="matrix(1.02159,0,0,1.00161,0,-0.297443)">
                    <path d="M338.961,233.844L230.246,233.844C229.651,233.844 229.17,234.326 229.17,234.921L229.17,270.307C229.17,270.901 229.651,271.383 230.246,271.383L338.961,271.383C339.556,271.383 340.038,270.901 340.038,270.307L340.038,234.921C340.038,234.326 339.556,233.844 338.961,233.844Z" style="fill:rgb(196,77,53);fill-rule:nonzero;"/>
                </g>
                <g transform="matrix(1.02159,0,0,1.00161,0,-0.297443)">
                    <path d="M229.17,247.631L229.17,245.874C229.89,246.266 230.609,246.659 231.329,247.055L230.87,247.055C230.328,247.267 229.761,247.458 229.17,247.631ZM234.247,243.974C232.539,243 230.846,242.047 229.17,241.113L229.17,234.921C229.17,234.326 229.651,233.844 230.246,233.844L293.965,233.844C243.925,236.93 239.351,236.526 235.74,240.306C235.133,240.942 234.639,242.24 234.247,243.974Z" style="fill:rgb(219,104,74);fill-rule:nonzero;"/>
                </g>
                <g transform="matrix(1.02159,0,0,1.00161,0,-0.297443)">
                    <path d="M338.961,271.383L295.263,271.383L295.263,270.597C323.499,269.632 327.491,270.561 332.593,266.161C337.499,261.93 335.714,242.046 334.761,233.844L338.961,233.844C339.556,233.844 340.038,234.326 340.038,234.921L340.038,270.307C340.038,270.901 339.556,271.383 338.961,271.383Z" style="fill:rgb(219,104,74);fill-rule:nonzero;"/>
                </g>
                <g transform="matrix(1.02159,0,0,1.00161,0,-0.297443)">
                    <path d="M308.381,263.968C305.577,263.968 303.304,262.377 303.304,260.415C303.304,258.452 305.577,256.86 308.381,256.86C311.184,256.86 313.457,258.452 313.457,260.415C313.457,262.377 311.184,263.968 308.381,263.968Z" style="fill:rgb(241,131,95);fill-rule:nonzero;"/>
                </g>
                <g transform="matrix(1.02159,0,0,1.00161,0,-0.297443)">
                    <path d="M282.736,247.72C282.655,247.701 282.573,247.684 282.49,247.668C282.425,247.68 282.36,247.692 282.294,247.704C281.334,247.578 280.6,246.873 280.6,246.023C280.6,245.084 281.496,244.322 282.602,244.322C283.707,244.322 284.603,245.084 284.603,246.023C284.603,246.924 283.779,247.661 282.736,247.72Z" style="fill:rgb(142,52,37);fill-rule:nonzero;"/>
                </g>
                <g transform="matrix(1.02159,0,0,1.00161,0,-0.297443)">
                    <path d="M251.515,247.902C249.897,247.872 248.278,247.813 246.671,247.72C247.243,247.175 248.077,246.831 249.005,246.831C250.033,246.831 250.945,247.252 251.515,247.902Z" style="fill:rgb(142,52,37);fill-rule:nonzero;"/>
                </g>
                <g transform="matrix(1.02159,0,0,1.00161,0,-0.297443)">
                    <path d="M325.315,240.285C323.638,240.285 322.279,241.44 322.279,242.865C322.279,244.289 323.638,245.444 325.315,245.444C326.992,245.444 328.351,244.289 328.351,242.865C328.351,241.44 326.992,240.285 325.315,240.285Z" style="fill:rgb(244,125,66);fill-rule:nonzero;"/>
                </g>
                <g transform="matrix(1.02159,0,0,1.00161,0,-0.297443)">
                    <path d="M266.566,261.381C265.44,261.381 264.528,262.045 264.528,262.865C264.528,263.685 265.44,264.35 266.566,264.35C267.691,264.35 268.603,263.685 268.603,262.865C268.603,262.045 267.691,261.381 266.566,261.381Z" style="fill:rgb(244,125,66);fill-rule:nonzero;"/>
                </g>
                <g transform="matrix(1.02159,0,0,1.00161,0,-0.297443)">
                    <path d="M455.833,233.844L347.118,233.844C346.524,233.844 346.042,234.326 346.042,234.921L346.042,270.307C346.042,270.901 346.524,271.383 347.118,271.383L455.833,271.383C456.428,271.383 456.91,270.901 456.91,270.307L456.91,234.921C456.91,234.326 456.428,233.844 455.833,233.844Z" style="fill:rgb(196,77,53);fill-rule:nonzero;"/>
                </g>
                <g transform="matrix(1.02159,0,0,1.00161,0,-0.297443)">
                    <path d="M350.53,271.383L347.118,271.383C346.524,271.383 346.042,270.901 346.042,270.307L346.042,234.921C346.042,234.326 346.524,233.844 347.118,233.844L410.838,233.844C360.798,236.93 356.223,236.526 352.613,240.306C349.568,243.495 349.387,263.299 350.53,271.383Z" style="fill:rgb(219,104,74);fill-rule:nonzero;"/>
                </g>
                <g transform="matrix(1.02159,0,0,1.00161,0,-0.297443)">
                    <path d="M455.833,271.383L393.596,271.383C438.917,269.099 443.41,271.383 449.465,266.161C454.372,261.93 452.587,242.046 451.633,233.844L455.833,233.844C456.428,233.844 456.91,234.326 456.91,234.921L456.91,270.307C456.91,270.901 456.428,271.383 455.833,271.383Z" style="fill:rgb(219,104,74);fill-rule:nonzero;"/>
                </g>
                <g transform="matrix(1.02159,0,0,1.00161,0,-0.297443)">
                    <path d="M415.914,252.552C413.11,252.552 410.838,250.961 410.838,248.998C410.838,247.035 413.11,245.444 415.914,245.444C418.717,245.444 420.99,247.035 420.99,248.998C420.99,250.961 418.717,252.552 415.914,252.552Z" style="fill:rgb(241,131,95);fill-rule:nonzero;"/>
                </g>
                <g transform="matrix(1.02159,0,0,1.00161,0,-0.297443)">
                    <path d="M399.474,247.724C398.368,247.724 397.472,246.962 397.472,246.023C397.472,245.084 398.368,244.322 399.474,244.322C400.58,244.322 401.476,245.084 401.476,246.023C401.476,246.962 400.58,247.724 399.474,247.724Z" style="fill:rgb(142,52,37);fill-rule:nonzero;"/>
                </g>
                <g transform="matrix(1.02159,0,0,1.00161,0,-0.297443)">
                    <path d="M440.194,257.913C438.229,257.913 436.635,256.56 436.635,254.891C436.635,253.221 438.229,251.868 440.194,251.868C442.159,251.868 443.752,253.221 443.752,254.891C443.752,256.56 442.159,257.913 440.194,257.913Z" style="fill:rgb(142,52,37);fill-rule:nonzero;"/>
                </g>
                <g transform="matrix(1.02159,0,0,1.00161,0,-0.297443)">
                    <path d="M369.503,247.746C367.826,247.746 366.467,248.9 366.467,250.325C366.467,251.75 367.826,252.905 369.503,252.905C371.18,252.905 372.539,251.75 372.539,250.325C372.539,248.9 371.18,247.746 369.503,247.746Z" style="fill:rgb(244,125,66);fill-rule:nonzero;"/>
                </g>
                <g transform="matrix(1.02159,0,0,1.00161,0,-0.297443)">
                    <path d="M383.438,261.381C382.313,261.381 381.4,262.045 381.4,262.865C381.4,263.685 382.313,264.35 383.438,264.35C384.563,264.35 385.476,263.685 385.476,262.865C385.476,262.045 384.563,261.381 383.438,261.381Z" style="fill:rgb(244,125,66);fill-rule:nonzero;"/>
                </g>
                <g transform="matrix(1.02159,0,0,1.00161,0,-0.297443)">
                    <path d="M462.914,234.921L462.914,270.307C462.914,270.901 463.396,271.383 463.991,271.383L555,271.383L555,233.844L463.991,233.844C463.396,233.844 462.914,234.326 462.914,234.921Z" style="fill:rgb(196,77,53);fill-rule:nonzero;"/>
                </g>
                <g transform="matrix(1.02159,0,0,1.00161,0,-0.297443)">
                    <path d="M467.402,271.383L463.991,271.383C463.396,271.383 462.914,270.901 462.914,270.307L462.914,234.921C462.914,234.326 463.396,233.844 463.991,233.844L527.71,233.844C477.67,236.93 473.095,236.526 469.485,240.306C466.44,243.495 466.259,263.299 467.402,271.383Z" style="fill:rgb(219,104,74);fill-rule:nonzero;"/>
                </g>
                <g transform="matrix(1.02159,0,0,1.00161,0,-0.297443)">
                    <path d="M555,271.383L510.468,271.383C535.127,270.14 547.686,270.249 555,269.766L555,271.383Z" style="fill:rgb(219,104,74);fill-rule:nonzero;"/>
                </g>
                <g transform="matrix(1.02159,0,0,1.00161,0,-0.297443)">
                    <path d="M482.942,256.596C480.139,256.596 477.866,255.005 477.866,253.042C477.866,251.08 480.139,249.488 482.942,249.488C485.746,249.488 488.019,251.08 488.019,253.042C488.019,255.005 485.746,256.596 482.942,256.596Z" style="fill:rgb(241,131,95);fill-rule:nonzero;"/>
                </g>
                <g transform="matrix(1.02159,0,0,1.00161,0,-0.297443)">
                    <path d="M550.006,263.968C547.202,263.968 544.93,262.377 544.93,260.415C544.93,258.452 547.202,256.86 550.006,256.86C552.53,256.86 554.608,258.154 555,259.843L555,260.986C554.608,262.675 552.53,263.968 550.006,263.968Z" style="fill:rgb(241,131,95);fill-rule:nonzero;"/>
                </g>
                <g transform="matrix(1.02159,0,0,1.00161,0,-0.297443)">
                    <path d="M516.346,247.724C515.241,247.724 514.344,246.962 514.344,246.023C514.344,245.084 515.241,244.322 516.346,244.322C517.452,244.322 518.348,245.084 518.348,246.023C518.348,246.962 517.452,247.724 516.346,247.724Z" style="fill:rgb(142,52,37);fill-rule:nonzero;"/>
                </g>
                <g transform="matrix(1.02159,0,0,1.00161,0,-0.297443)">
                    <path d="M500.31,261.381C499.185,261.381 498.273,262.045 498.273,262.865C498.273,263.685 499.185,264.35 500.31,264.35C501.436,264.35 502.348,263.685 502.348,262.865C502.348,262.045 501.436,261.381 500.31,261.381Z" style="fill:rgb(244,125,66);fill-rule:nonzero;"/>
                </g>
                <g transform="matrix(1.02159,0,0,1.00161,0,-0.297443)">
                    <path d="M527.71,253.455C525.715,253.455 524.098,254.634 524.098,256.088C524.098,257.542 525.715,258.721 527.71,258.721C529.705,258.721 531.322,257.542 531.322,256.088C531.322,254.634 529.705,253.455 527.71,253.455Z" style="fill:rgb(244,125,66);fill-rule:nonzero;"/>
                </g>
                <g transform="matrix(1.02159,0,0,1.00161,0,-0.297443)">
                    <path d="M47.856,314.235L47.856,278.849C47.856,278.254 47.374,277.772 46.78,277.772L0,277.772L0,315.311L46.78,315.311C47.374,315.311 47.856,314.829 47.856,314.235Z" style="fill:rgb(196,77,53);fill-rule:nonzero;"/>
                </g>
                <g transform="matrix(1.02159,0,0,1.00161,0,-0.297443)">
                    <path d="M0,277.881L0,277.772L1.784,277.772C1.172,277.81 0.598,277.845 0,277.881Z" style="fill:rgb(219,104,74);fill-rule:nonzero;"/>
                </g>
                <g transform="matrix(1.02159,0,0,1.00161,0,-0.297443)">
                    <path d="M28.347,315.311L0,315.311L0,314.635C15.018,314.08 23.728,314.064 29.317,313.679C29.195,313.972 28.901,314.235 28.347,314.441L28.347,315.311Z" style="fill:rgb(219,104,74);fill-rule:nonzero;"/>
                </g>
                <g transform="matrix(1.02159,0,0,1.00161,0,-0.297443)">
                    <path d="M33.134,284.213C31.457,284.213 30.098,285.368 30.098,286.793C30.098,288.217 31.457,289.372 33.134,289.372C34.811,289.372 36.17,288.217 36.17,286.793C36.17,285.368 34.811,284.213 33.134,284.213Z" style="fill:rgb(244,125,66);fill-rule:nonzero;"/>
                </g>
                <g transform="matrix(1.02159,0,0,1.00161,0,-0.297443)">
                    <path d="M27.898,307.159C24.381,307.159 21.53,305.233 21.53,302.857C21.53,300.481 24.381,298.555 27.898,298.555C28.049,298.555 28.199,298.558 28.347,298.565L28.347,307.149C28.199,307.156 28.049,307.159 27.898,307.159Z" style="fill:rgb(241,131,95);fill-rule:nonzero;"/>
                </g>
                <g transform="matrix(1.02159,0,0,1.00161,0,-0.297443)">
                    <path d="M163.652,277.772L54.937,277.772C54.342,277.772 53.86,278.254 53.86,278.849L53.86,314.235C53.86,314.829 54.342,315.311 54.937,315.311L163.652,315.311C164.247,315.311 164.729,314.829 164.729,314.235L164.729,278.849C164.729,278.254 164.247,277.772 163.652,277.772Z" style="fill:rgb(196,77,53);fill-rule:nonzero;"/>
                </g>
                <g transform="matrix(1.02159,0,0,1.00161,0,-0.297443)">
                    <path d="M150.007,284.213C148.33,284.213 146.97,285.368 146.97,286.793C146.97,288.217 148.33,289.372 150.007,289.372C151.683,289.372 153.043,288.217 153.043,286.793C153.043,285.368 151.683,284.213 150.007,284.213Z" style="fill:rgb(244,125,66);fill-rule:nonzero;"/>
                </g>
                <g transform="matrix(1.02159,0,0,1.00161,0,-0.297443)">
                    <path d="M75.59,301.372C74.465,301.372 73.553,302.037 73.553,302.857C73.553,303.677 74.465,304.342 75.59,304.342C76.716,304.342 77.628,303.677 77.628,302.857C77.628,302.037 76.716,301.372 75.59,301.372Z" style="fill:rgb(244,125,66);fill-rule:nonzero;"/>
                </g>
                <g transform="matrix(1.02159,0,0,1.00161,0,-0.297443)">
                    <path d="M280.525,277.772L171.81,277.772C171.215,277.772 170.733,278.254 170.733,278.849L170.733,314.235C170.733,314.829 171.215,315.311 171.81,315.311L280.525,315.311C281.119,315.311 281.601,314.829 281.601,314.235L281.601,278.849C281.601,278.254 281.119,277.772 280.525,277.772Z" style="fill:rgb(196,77,53);fill-rule:nonzero;"/>
                </g>
                <g transform="matrix(1.02159,0,0,1.00161,0,-0.297443)">
                    <path d="M266.879,284.213C265.202,284.213 263.843,285.368 263.843,286.793C263.843,288.217 265.202,289.372 266.879,289.372C268.556,289.372 269.915,288.217 269.915,286.793C269.915,285.368 268.556,284.213 266.879,284.213Z" style="fill:rgb(244,125,66);fill-rule:nonzero;"/>
                </g>
                <g transform="matrix(1.02159,0,0,1.00161,0,-0.297443)">
                    <path d="M208.13,305.308C207.004,305.308 206.092,305.973 206.092,306.793C206.092,307.613 207.004,308.278 208.13,308.278C209.255,308.278 210.167,307.613 210.167,306.793C210.167,305.973 209.255,305.308 208.13,305.308Z" style="fill:rgb(244,125,66);fill-rule:nonzero;"/>
                </g>
                <g transform="matrix(1.02159,0,0,1.00161,0,-0.297443)">
                    <path d="M248.266,303.823C247.141,303.823 246.228,304.488 246.228,305.308C246.228,306.128 247.141,306.793 248.266,306.793C249.391,306.793 250.303,306.128 250.303,305.308C250.303,304.488 249.391,303.823 248.266,303.823Z" style="fill:rgb(244,125,66);fill-rule:nonzero;"/>
                </g>
                <g transform="matrix(1.02159,0,0,1.00161,0,-0.297443)">
                    <path d="M397.397,277.772L288.682,277.772C288.088,277.772 287.606,278.254 287.606,278.849L287.606,314.235C287.606,314.829 288.088,315.311 288.682,315.311L397.397,315.311C397.992,315.311 398.474,314.829 398.474,314.235L398.474,278.849C398.474,278.254 397.992,277.772 397.397,277.772Z" style="fill:rgb(196,77,53);fill-rule:nonzero;"/>
                </g>
                <g transform="matrix(1.02159,0,0,1.00161,0,-0.297443)">
                    <path d="M290.309,309.377C289.398,309.377 288.456,309.026 288.765,308.489C288.739,308.533 288.72,308.551 288.706,308.551C288.653,308.551 288.664,308.314 288.664,308.301C288.664,308.164 288.78,307.989 288.928,307.871C289.256,307.608 289.861,307.505 290.441,307.416C290.551,307.399 290.667,307.391 290.788,307.39C290.131,307.142 290.072,306.59 290.683,306.311C290.94,306.193 291.202,306.079 291.47,305.968C291.49,307.027 291.523,308.061 291.568,309.053C291.562,309.052 291.555,309.051 291.549,309.05C291.276,309.276 290.797,309.376 290.309,309.377ZM295.263,283.268L295.263,277.772L352.402,277.772C307.089,280.566 299.057,280.499 295.263,283.268Z" style="fill:rgb(219,104,74);fill-rule:nonzero;"/>
                </g>
                <g transform="matrix(1.02159,0,0,1.00161,0,-0.297443)">
                    <path d="M397.397,315.311L335.16,315.311C380.481,313.027 384.974,315.311 391.029,310.089C395.935,305.857 394.151,285.973 393.197,277.772L397.397,277.772C397.992,277.772 398.474,278.254 398.474,278.849L398.474,314.235C398.474,314.829 397.992,315.311 397.397,315.311Z" style="fill:rgb(219,104,74);fill-rule:nonzero;"/>
                </g>
                <g transform="matrix(1.02159,0,0,1.00161,0,-0.297443)">
                    <path d="M366.817,307.896C364.013,307.896 361.741,306.305 361.741,304.342C361.741,302.379 364.013,300.788 366.817,300.788C369.62,300.788 371.893,302.379 371.893,304.342C371.893,306.305 369.62,307.896 366.817,307.896Z" style="fill:rgb(241,131,95);fill-rule:nonzero;"/>
                </g>
                <g transform="matrix(1.02159,0,0,1.00161,0,-0.297443)">
                    <path d="M341.038,291.651C339.932,291.651 339.036,290.89 339.036,289.951C339.036,289.011 339.932,288.25 341.038,288.25C342.143,288.25 343.04,289.011 343.04,289.951C343.04,290.89 342.143,291.651 341.038,291.651Z" style="fill:rgb(142,52,37);fill-rule:nonzero;"/>
                </g>
                <g transform="matrix(1.02159,0,0,1.00161,0,-0.297443)">
                    <path d="M307.442,296.074C305.714,296.074 304.314,294.884 304.314,293.416C304.314,291.949 305.714,290.759 307.442,290.759C309.169,290.759 310.57,291.949 310.57,293.416C310.57,294.884 309.169,296.074 307.442,296.074Z" style="fill:rgb(142,52,37);fill-rule:nonzero;"/>
                </g>
                <g transform="matrix(1.02159,0,0,1.00161,0,-0.297443)">
                    <path d="M383.751,284.213C382.075,284.213 380.715,285.368 380.715,286.793C380.715,288.217 382.075,289.372 383.751,289.372C385.428,289.372 386.787,288.217 386.787,286.793C386.787,285.368 385.428,284.213 383.751,284.213Z" style="fill:rgb(244,125,66);fill-rule:nonzero;"/>
                </g>
                <g transform="matrix(1.02159,0,0,1.00161,0,-0.297443)">
                    <path d="M325.002,305.308C323.877,305.308 322.964,305.972 322.964,306.793C322.964,307.613 323.877,308.278 325.002,308.278C326.127,308.278 327.039,307.613 327.039,306.793C327.039,305.972 326.127,305.308 325.002,305.308Z" style="fill:rgb(244,125,66);fill-rule:nonzero;"/>
                </g>
                <g transform="matrix(1.02159,0,0,1.00161,0,-0.297443)">
                    <path d="M514.27,277.772L405.555,277.772C404.96,277.772 404.478,278.254 404.478,278.849L404.478,314.235C404.478,314.829 404.96,315.311 405.555,315.311L514.27,315.311C514.864,315.311 515.346,314.829 515.346,314.235L515.346,278.849C515.346,278.254 514.864,277.772 514.27,277.772Z" style="fill:rgb(196,77,53);fill-rule:nonzero;"/>
                </g>
                <g transform="matrix(1.02159,0,0,1.00161,0,-0.297443)">
                    <path d="M408.966,315.311L405.555,315.311C405.538,315.311 405.522,315.311 405.506,315.31C404.934,315.285 404.478,314.813 404.478,314.235L404.478,278.849C404.478,278.254 404.96,277.772 405.555,277.772L469.274,277.772C419.234,280.858 414.659,280.454 411.049,284.234C408.004,287.422 407.823,307.227 408.966,315.311Z" style="fill:rgb(219,104,74);fill-rule:nonzero;"/>
                </g>
                <g transform="matrix(1.02159,0,0,1.00161,0,-0.297443)">
                    <path d="M514.27,315.311L452.032,315.311C497.353,313.027 501.846,315.311 507.901,310.089C512.807,305.857 511.023,285.973 510.069,277.772L514.27,277.772C514.864,277.772 515.346,278.254 515.346,278.849L515.346,314.235C515.346,314.829 514.864,315.311 514.27,315.311Z" style="fill:rgb(219,104,74);fill-rule:nonzero;"/>
                </g>
                <g transform="matrix(1.02159,0,0,1.00161,0,-0.297443)">
                    <path d="M474.35,296.48C471.547,296.48 469.274,294.888 469.274,292.926C469.274,290.963 471.547,289.372 474.35,289.372C477.154,289.372 479.426,290.963 479.426,292.926C479.426,294.888 477.154,296.48 474.35,296.48Z" style="fill:rgb(241,131,95);fill-rule:nonzero;"/>
                </g>
                <g transform="matrix(1.02159,0,0,1.00161,0,-0.297443)">
                    <path d="M457.91,291.651C456.805,291.651 455.908,290.89 455.908,289.951C455.908,289.011 456.805,288.25 457.91,288.25C459.016,288.25 459.912,289.011 459.912,289.951C459.912,290.89 459.016,291.651 457.91,291.651Z" style="fill:rgb(142,52,37);fill-rule:nonzero;"/>
                </g>
                <g transform="matrix(1.02159,0,0,1.00161,0,-0.297443)">
                    <path d="M498.63,301.841C496.665,301.841 495.072,300.488 495.072,298.818C495.072,297.149 496.665,295.795 498.63,295.795C500.595,295.795 502.188,297.149 502.188,298.818C502.188,300.488 500.595,301.841 498.63,301.841Z" style="fill:rgb(142,52,37);fill-rule:nonzero;"/>
                </g>
                <g transform="matrix(1.02159,0,0,1.00161,0,-0.297443)">
                    <path d="M427.939,291.673C426.263,291.673 424.903,292.828 424.903,294.253C424.903,295.677 426.263,296.832 427.939,296.832C429.616,296.832 430.976,295.677 430.976,294.253C430.976,292.828 429.616,291.673 427.939,291.673Z" style="fill:rgb(244,125,66);fill-rule:nonzero;"/>
                </g>
                <g transform="matrix(1.02159,0,0,1.00161,0,-0.297443)">
                    <path d="M441.874,305.308C440.749,305.308 439.837,305.972 439.837,306.793C439.837,307.613 440.749,308.278 441.874,308.278C443,308.278 443.912,307.613 443.912,306.793C443.912,305.972 443,305.308 441.874,305.308Z" style="fill:rgb(244,125,66);fill-rule:nonzero;"/>
                </g>
                <g transform="matrix(1.02159,0,0,1.00161,0,-0.297443)">
                    <path d="M521.351,278.849L521.351,314.235C521.351,314.829 521.831,315.311 522.427,315.311L555,315.311L555,277.772L522.427,277.772C521.831,277.772 521.351,278.254 521.351,278.849Z" style="fill:rgb(196,77,53);fill-rule:nonzero;"/>
                </g>
                <g transform="matrix(1.02159,0,0,1.00161,0,-0.297443)">
                    <path d="M525.838,315.311L522.427,315.311C521.831,315.311 521.351,314.829 521.351,314.235L521.351,278.849C521.351,278.254 521.831,277.772 522.427,277.772L555,277.772L555,279.64C533.76,280.939 530.569,281.462 527.921,284.234C524.876,287.422 524.695,307.227 525.838,315.311Z" style="fill:rgb(219,104,74);fill-rule:nonzero;"/>
                </g>
                <g transform="matrix(1.02159,0,0,1.00161,0,-0.297443)">
                    <path d="M541.378,300.524C538.575,300.524 536.302,298.933 536.302,296.97C536.302,295.007 538.575,293.416 541.378,293.416C544.182,293.416 546.455,295.007 546.455,296.97C546.455,298.933 544.182,300.524 541.378,300.524Z" style="fill:rgb(241,131,95);fill-rule:nonzero;"/>
                </g>
                <g transform="matrix(1.02159,0,0,1.00161,0,-0.297443)">
                    <path d="M106.293,357.341L106.293,321.955C106.293,321.36 105.811,320.878 105.216,320.878L0,320.878L0,358.417L105.216,358.417C105.811,358.417 106.293,357.935 106.293,357.341Z" style="fill:rgb(196,77,53);fill-rule:nonzero;"/>
                </g>
                <g transform="matrix(1.02159,0,0,1.00161,0,-0.297443)">
                    <path d="M0,333.853L0,320.878L30.053,320.878C30.055,320.914 30.057,320.95 30.059,320.986C30.073,321.345 29.597,321.568 28.997,321.645L28.977,321.756C29.144,321.89 29.312,322.024 29.486,322.156C29.774,322.322 30.046,322.496 30.306,322.671C7.933,324.026 4.694,324.514 1.995,327.34C1.089,328.288 0.439,330.712 0,333.853Z" style="fill:rgb(219,104,74);fill-rule:nonzero;"/>
                </g>
                <g transform="matrix(1.02159,0,0,1.00161,0,-0.297443)">
                    <path d="M28.347,334.159C27.962,333.659 27.744,333.086 27.744,332.478C27.744,331.87 27.962,331.298 28.347,330.797L28.347,334.159Z" style="fill:rgb(241,131,95);fill-rule:nonzero;"/>
                </g>
                <g transform="matrix(1.02159,0,0,1.00161,0,-0.297443)">
                    <path d="M91.57,327.319C89.893,327.319 88.534,328.474 88.534,329.899C88.534,331.323 89.893,332.478 91.57,332.478C93.247,332.478 94.606,331.323 94.606,329.899C94.606,328.474 93.247,327.319 91.57,327.319Z" style="fill:rgb(244,125,66);fill-rule:nonzero;"/>
                </g>
                <g transform="matrix(1.02159,0,0,1.00161,0,-0.297443)">
                    <path d="M17.154,344.478C16.029,344.478 15.116,345.143 15.116,345.963C15.116,346.783 16.029,347.448 17.154,347.448C18.279,347.448 19.192,346.783 19.192,345.963C19.192,345.143 18.279,344.478 17.154,344.478Z" style="fill:rgb(244,125,66);fill-rule:nonzero;"/>
                </g>
                <g transform="matrix(1.02159,0,0,1.00161,0,-0.297443)">
                    <path d="M222.089,320.878L113.373,320.878C112.779,320.878 112.297,321.36 112.297,321.955L112.297,357.341C112.297,357.935 112.779,358.417 113.373,358.417L222.089,358.417C222.683,358.417 223.165,357.935 223.165,357.341L223.165,321.955C223.165,321.36 222.683,320.878 222.089,320.878Z" style="fill:rgb(196,77,53);fill-rule:nonzero;"/>
                </g>
                <g transform="matrix(1.02159,0,0,1.00161,0,-0.297443)">
                    <path d="M208.443,327.319C206.766,327.319 205.407,328.474 205.407,329.899C205.407,331.323 206.766,332.478 208.443,332.478C210.12,332.478 211.479,331.323 211.479,329.899C211.479,328.474 210.12,327.319 208.443,327.319Z" style="fill:rgb(244,125,66);fill-rule:nonzero;"/>
                </g>
                <g transform="matrix(1.02159,0,0,1.00161,0,-0.297443)">
                    <path d="M149.693,348.414C148.568,348.414 147.656,349.079 147.656,349.899C147.656,350.719 148.568,351.384 149.693,351.384C150.819,351.384 151.731,350.719 151.731,349.899C151.731,349.079 150.819,348.414 149.693,348.414Z" style="fill:rgb(244,125,66);fill-rule:nonzero;"/>
                </g>
                <g transform="matrix(1.02159,0,0,1.00161,0,-0.297443)">
                    <path d="M189.83,346.929C188.704,346.929 187.792,347.594 187.792,348.414C187.792,349.234 188.704,349.899 189.83,349.899C190.955,349.899 191.867,349.234 191.867,348.414C191.867,347.594 190.955,346.929 189.83,346.929Z" style="fill:rgb(244,125,66);fill-rule:nonzero;"/>
                </g>
                <g transform="matrix(1.02159,0,0,1.00161,0,-0.297443)">
                    <path d="M338.961,320.878L230.246,320.878C229.651,320.878 229.17,321.36 229.17,321.955L229.17,357.341C229.17,357.935 229.651,358.417 230.246,358.417L338.961,358.417C339.556,358.417 340.038,357.935 340.038,357.341L340.038,321.955C340.038,321.36 339.556,320.878 338.961,320.878Z" style="fill:rgb(196,77,53);fill-rule:nonzero;"/>
                </g>
                <g transform="matrix(1.02159,0,0,1.00161,0,-0.297443)">
                    <path d="M338.961,358.417L295.263,358.417L295.263,357.631C323.499,356.666 327.491,357.595 332.593,353.195C337.499,348.964 335.714,329.08 334.761,320.878L338.961,320.878C339.556,320.878 340.038,321.36 340.038,321.955L340.038,357.341C340.038,357.935 339.556,358.417 338.961,358.417Z" style="fill:rgb(219,104,74);fill-rule:nonzero;"/>
                </g>
                <g transform="matrix(1.02159,0,0,1.00161,0,-0.297443)">
                    <path d="M308.381,351.002C305.577,351.002 303.304,349.411 303.304,347.448C303.304,345.485 305.577,343.895 308.381,343.895C311.184,343.895 313.457,345.485 313.457,347.448C313.457,349.411 311.184,351.002 308.381,351.002Z" style="fill:rgb(241,131,95);fill-rule:nonzero;"/>
                </g>
                <g transform="matrix(1.02159,0,0,1.00161,0,-0.297443)">
                    <path d="M325.315,327.319C323.638,327.319 322.279,328.474 322.279,329.899C322.279,331.323 323.638,332.478 325.315,332.478C326.992,332.478 328.351,331.323 328.351,329.899C328.351,328.474 326.992,327.319 325.315,327.319Z" style="fill:rgb(244,125,66);fill-rule:nonzero;"/>
                </g>
                <g transform="matrix(1.02159,0,0,1.00161,0,-0.297443)">
                    <path d="M266.566,348.414C265.44,348.414 264.528,349.079 264.528,349.899C264.528,350.719 265.44,351.384 266.566,351.384C267.691,351.384 268.603,350.719 268.603,349.899C268.603,349.079 267.691,348.414 266.566,348.414Z" style="fill:rgb(244,125,66);fill-rule:nonzero;"/>
                </g>
                <g transform="matrix(1.02159,0,0,1.00161,0,-0.297443)">
                    <path d="M455.833,320.878L347.118,320.878C346.524,320.878 346.042,321.36 346.042,321.955L346.042,357.341C346.042,357.935 346.524,358.417 347.118,358.417L455.833,358.417C456.428,358.417 456.91,357.935 456.91,357.341L456.91,321.955C456.91,321.36 456.428,320.878 455.833,320.878Z" style="fill:rgb(196,77,53);fill-rule:nonzero;"/>
                </g>
                <g transform="matrix(1.02159,0,0,1.00161,0,-0.297443)">
                    <path d="M350.53,358.417L347.118,358.417C346.524,358.417 346.042,357.935 346.042,357.341L346.042,321.955C346.042,321.36 346.524,320.878 347.118,320.878L410.838,320.878C360.798,323.964 356.223,323.56 352.613,327.34C349.568,330.528 349.387,350.333 350.53,358.417Z" style="fill:rgb(219,104,74);fill-rule:nonzero;"/>
                </g>
                <g transform="matrix(1.02159,0,0,1.00161,0,-0.297443)">
                    <path d="M455.833,358.417L393.596,358.417C438.917,356.133 443.41,358.417 449.465,353.195C454.372,348.964 452.587,329.08 451.633,320.878L455.833,320.878C456.428,320.878 456.91,321.36 456.91,321.955L456.91,357.341C456.91,357.935 456.428,358.417 455.833,358.417Z" style="fill:rgb(219,104,74);fill-rule:nonzero;"/>
                </g>
                <g transform="matrix(1.02159,0,0,1.00161,0,-0.297443)">
                    <path d="M415.914,339.586C413.11,339.586 410.838,337.995 410.838,336.032C410.838,334.069 413.11,332.478 415.914,332.478C418.717,332.478 420.99,334.069 420.99,336.032C420.99,337.995 418.717,339.586 415.914,339.586Z" style="fill:rgb(241,131,95);fill-rule:nonzero;"/>
                </g>
                <g transform="matrix(1.02159,0,0,1.00161,0,-0.297443)">
                    <path d="M399.474,334.757C398.368,334.757 397.472,333.996 397.472,333.057C397.472,332.118 398.368,331.356 399.474,331.356C400.58,331.356 401.476,332.118 401.476,333.057C401.476,333.996 400.58,334.757 399.474,334.757Z" style="fill:rgb(142,52,37);fill-rule:nonzero;"/>
                </g>
                <g transform="matrix(1.02159,0,0,1.00161,0,-0.297443)">
                    <path d="M440.194,344.947C438.229,344.947 436.635,343.594 436.635,341.925C436.635,340.255 438.229,338.901 440.194,338.901C442.159,338.901 443.752,340.255 443.752,341.925C443.752,343.594 442.159,344.947 440.194,344.947Z" style="fill:rgb(142,52,37);fill-rule:nonzero;"/>
                </g>
                <g transform="matrix(1.02159,0,0,1.00161,0,-0.297443)">
                    <path d="M369.503,334.78C367.826,334.78 366.467,335.934 366.467,337.359C366.467,338.784 367.826,339.938 369.503,339.938C371.18,339.938 372.539,338.784 372.539,337.359C372.539,335.934 371.18,334.78 369.503,334.78Z" style="fill:rgb(244,125,66);fill-rule:nonzero;"/>
                </g>
                <g transform="matrix(1.02159,0,0,1.00161,0,-0.297443)">
                    <path d="M383.438,348.414C382.313,348.414 381.4,349.079 381.4,349.899C381.4,350.719 382.313,351.384 383.438,351.384C384.563,351.384 385.476,350.719 385.476,349.899C385.476,349.079 384.563,348.414 383.438,348.414Z" style="fill:rgb(244,125,66);fill-rule:nonzero;"/>
                </g>
                <g transform="matrix(1.02159,0,0,1.00161,0,-0.297443)">
                    <path d="M462.914,321.955L462.914,357.341C462.914,357.935 463.396,358.417 463.991,358.417L555,358.417L555,320.878L463.991,320.878C463.396,320.878 462.914,321.36 462.914,321.955Z" style="fill:rgb(196,77,53);fill-rule:nonzero;"/>
                </g>
                <g transform="matrix(1.02159,0,0,1.00161,0,-0.297443)">
                    <path d="M467.402,358.417L463.991,358.417C463.396,358.417 462.914,357.935 462.914,357.341L462.914,321.955C462.914,321.36 463.396,320.878 463.991,320.878L527.71,320.878C477.67,323.964 473.095,323.56 469.485,327.34C466.44,330.528 466.259,350.333 467.402,358.417Z" style="fill:rgb(219,104,74);fill-rule:nonzero;"/>
                </g>
                <g transform="matrix(1.02159,0,0,1.00161,0,-0.297443)">
                    <path d="M555,358.417L510.468,358.417C535.127,357.174 547.686,357.282 555,356.8L555,358.417Z" style="fill:rgb(219,104,74);fill-rule:nonzero;"/>
                </g>
                <g transform="matrix(1.02159,0,0,1.00161,0,-0.297443)">
                    <path d="M482.942,343.63C480.139,343.63 477.866,342.039 477.866,340.076C477.866,338.113 480.139,336.522 482.942,336.522C485.746,336.522 488.019,338.113 488.019,340.076C488.019,342.039 485.746,343.63 482.942,343.63Z" style="fill:rgb(241,131,95);fill-rule:nonzero;"/>
                </g>
                <g transform="matrix(1.02159,0,0,1.00161,0,-0.297443)">
                    <path d="M550.006,351.002C547.202,351.002 544.93,349.411 544.93,347.448C544.93,345.485 547.202,343.895 550.006,343.895C552.53,343.895 554.608,345.187 555,346.877L555,348.019C554.608,349.709 552.53,351.002 550.006,351.002Z" style="fill:rgb(241,131,95);fill-rule:nonzero;"/>
                </g>
                <g transform="matrix(1.02159,0,0,1.00161,0,-0.297443)">
                    <path d="M516.346,334.757C515.241,334.757 514.344,333.996 514.344,333.057C514.344,332.118 515.241,331.356 516.346,331.356C517.452,331.356 518.348,332.118 518.348,333.057C518.348,333.996 517.452,334.757 516.346,334.757Z" style="fill:rgb(142,52,37);fill-rule:nonzero;"/>
                </g>
                <g transform="matrix(1.02159,0,0,1.00161,0,-0.297443)">
                    <path d="M500.31,348.414C499.185,348.414 498.273,349.079 498.273,349.899C498.273,350.719 499.185,351.384 500.31,351.384C501.436,351.384 502.348,350.719 502.348,349.899C502.348,349.079 501.436,348.414 500.31,348.414Z" style="fill:rgb(244,125,66);fill-rule:nonzero;"/>
                </g>
                <g transform="matrix(1.02159,0,0,1.00161,0,-0.297443)">
                    <path d="M527.71,340.489C525.715,340.489 524.098,341.668 524.098,343.122C524.098,344.576 525.715,345.754 527.71,345.754C529.705,345.754 531.322,344.576 531.322,343.122C531.322,341.668 529.705,340.489 527.71,340.489Z" style="fill:rgb(244,125,66);fill-rule:nonzero;"/>
                </g>
                <g transform="matrix(1.02159,0,0,1.00161,0,-0.297443)">
                    <path d="M46.78,364.806L0,364.806L0,401L47.856,401L47.856,365.882C47.856,365.288 47.374,364.806 46.78,364.806Z" style="fill:rgb(196,77,53);fill-rule:nonzero;"/>
                </g>
                <g transform="matrix(1.02159,0,0,1.00161,0,-0.297443)">
                    <path d="M0,364.915L0,364.806L1.784,364.806C1.172,364.844 0.598,364.879 0,364.915Z" style="fill:rgb(219,104,74);fill-rule:nonzero;"/>
                </g>
                <g transform="matrix(1.02159,0,0,1.00161,0,-0.297443)">
                    <path d="M47.856,401L22.826,401C33.837,400.665 36.862,400.184 40.411,397.123C42.724,395.128 43.55,389.655 43.677,383.568L47.856,383.568L47.856,401Z" style="fill:rgb(219,104,74);fill-rule:nonzero;"/>
                </g>
                <g transform="matrix(1.02159,0,0,1.00161,0,-0.297443)">
                    <path d="M33.134,371.247C31.457,371.247 30.098,372.402 30.098,373.827C30.098,375.251 31.457,376.406 33.134,376.406C34.811,376.406 36.17,375.251 36.17,373.827C36.17,372.402 34.811,371.247 33.134,371.247Z" style="fill:rgb(244,125,66);fill-rule:nonzero;"/>
                </g>
                <g transform="matrix(1.02159,0,0,1.00161,0,-0.297443)">
                    <path d="M27.898,394.193C24.381,394.193 21.53,392.267 21.53,389.891C21.53,387.515 24.381,385.589 27.898,385.589C31.415,385.589 34.267,387.515 34.267,389.891C34.267,392.267 31.415,394.193 27.898,394.193Z" style="fill:rgb(241,131,95);fill-rule:nonzero;"/>
                </g>
                <g transform="matrix(1.02159,0,0,1.00161,0,-0.297443)">
                    <path d="M163.652,364.806L54.937,364.806C54.342,364.806 53.86,365.288 53.86,365.882L53.86,401L164.729,401L164.729,365.882C164.729,365.288 164.247,364.806 163.652,364.806Z" style="fill:rgb(196,77,53);fill-rule:nonzero;"/>
                </g>
                <g transform="matrix(1.02159,0,0,1.00161,0,-0.297443)">
                    <path d="M58.183,401L53.86,401L53.86,383.568L57.891,383.568C57.54,389.635 57.697,396.526 58.183,401Z" style="fill:rgb(219,104,74);fill-rule:nonzero;"/>
                </g>
                <g transform="matrix(1.02159,0,0,1.00161,0,-0.297443)">
                    <path d="M164.729,401L139.699,401C150.71,400.665 153.735,400.184 157.284,397.123C159.746,395 160.523,388.936 160.566,382.384C160.685,382.411 160.802,382.438 160.92,382.466C161.612,382.436 162.303,382.406 162.995,382.374C163.032,382.373 163.068,382.372 163.104,382.372C163.269,382.372 163.43,382.389 163.58,382.419C163.544,382.295 163.516,382.17 163.504,382.04C163.473,381.712 164.059,381.412 164.729,381.331L164.729,401Z" style="fill:rgb(219,104,74);fill-rule:nonzero;"/>
                </g>
                <g transform="matrix(1.02159,0,0,1.00161,0,-0.297443)">
                    <path d="M125.885,390.462C124.548,390.462 123.464,389.542 123.464,388.406C123.464,387.271 124.548,386.35 125.885,386.35C127.221,386.35 128.304,387.271 128.304,388.406C128.304,389.542 127.221,390.462 125.885,390.462Z" style="fill:rgb(142,52,37);fill-rule:nonzero;"/>
                </g>
                <g transform="matrix(1.02159,0,0,1.00161,0,-0.297443)">
                    <path d="M150.007,371.247C148.33,371.247 146.97,372.402 146.97,373.827C146.97,375.251 148.33,376.406 150.007,376.406C151.683,376.406 153.043,375.251 153.043,373.827C153.043,372.402 151.683,371.247 150.007,371.247Z" style="fill:rgb(244,125,66);fill-rule:nonzero;"/>
                </g>
                <g transform="matrix(1.02159,0,0,1.00161,0,-0.297443)">
                    <path d="M75.59,388.406C74.465,388.406 73.553,389.071 73.553,389.891C73.553,390.711 74.465,391.376 75.59,391.376C76.716,391.376 77.628,390.711 77.628,389.891C77.628,389.071 76.716,388.406 75.59,388.406Z" style="fill:rgb(244,125,66);fill-rule:nonzero;"/>
                </g>
                <g transform="matrix(1.02159,0,0,1.00161,0,-0.297443)">
                    <path d="M280.525,364.806L171.81,364.806C171.215,364.806 170.733,365.288 170.733,365.882L170.733,401L281.601,401L281.601,365.882C281.601,365.288 281.119,364.806 280.525,364.806Z" style="fill:rgb(196,77,53);fill-rule:nonzero;"/>
                </g>
                <g transform="matrix(1.02159,0,0,1.00161,0,-0.297443)">
                    <path d="M175.056,401L170.733,401L170.733,382.665C171.191,382.76 171.649,382.853 172.105,382.949C172.207,382.971 172.297,382.996 172.378,383.022C172.545,382.926 172.71,382.829 172.866,382.729C173.216,382.504 173.694,382.383 174.19,382.383C174.405,382.383 174.623,382.406 174.835,382.453C174.395,388.773 174.539,396.249 175.056,401Z" style="fill:rgb(219,104,74);fill-rule:nonzero;"/>
                </g>
                <g transform="matrix(1.02159,0,0,1.00161,0,-0.297443)">
                    <path d="M281.601,401L256.571,401C267.583,400.665 270.608,400.184 274.156,397.123C276.527,395.079 277.335,389.381 277.431,383.113C278.195,383.233 278.959,383.404 279.671,383.568L279.693,383.568C280.126,383.437 280.583,383.383 281.047,383.383C281.231,383.383 281.416,383.391 281.601,383.407L281.601,401Z" style="fill:rgb(219,104,74);fill-rule:nonzero;"/>
                </g>
                <g transform="matrix(1.02159,0,0,1.00161,0,-0.297443)">
                    <path d="M190.761,387.558C187.958,387.558 185.685,385.967 185.685,384.004C185.685,383.476 185.85,382.974 186.145,382.524C186.728,382.396 187.32,382.271 187.954,382.215C188.159,382.196 188.355,382.187 188.542,382.187C189.171,382.187 189.699,382.286 190.135,382.452C190.429,382.346 190.759,382.292 191.089,382.292C191.56,382.292 192.029,382.403 192.385,382.633C192.661,382.812 192.962,382.981 193.257,383.151L193.447,383.061C193.686,382.925 194.132,382.847 194.558,382.847C194.832,382.847 195.099,382.879 195.295,382.949C195.419,382.993 195.542,383.037 195.665,383.081C195.777,383.376 195.837,383.685 195.837,384.004C195.837,385.967 193.565,387.558 190.761,387.558Z" style="fill:rgb(241,131,95);fill-rule:nonzero;"/>
                </g>
                <g transform="matrix(1.02159,0,0,1.00161,0,-0.297443)">
                    <path d="M101.415,389.258C100.309,389.258 99.413,388.497 99.413,387.558C99.413,386.618 100.309,385.857 101.415,385.857C102.521,385.857 103.417,386.618 103.417,387.558C103.417,388.497 102.521,389.258 101.415,389.258Z" style="fill:rgb(142,52,37);fill-rule:nonzero;"/>
                </g>
                <g transform="matrix(1.02159,0,0,1.00161,0,-0.297443)">
                    <path d="M266.879,371.247C265.202,371.247 263.843,372.402 263.843,373.827C263.843,375.251 265.202,376.406 266.879,376.406C268.556,376.406 269.915,375.251 269.915,373.827C269.915,372.402 268.556,371.247 266.879,371.247Z" style="fill:rgb(244,125,66);fill-rule:nonzero;"/>
                </g>
                <g transform="matrix(1.02159,0,0,1.00161,0,-0.297443)">
                    <path d="M208.129,392.342C207.004,392.342 206.092,393.006 206.092,393.826C206.092,394.647 207.004,395.311 208.129,395.311C209.255,395.311 210.167,394.647 210.167,393.826C210.167,393.006 209.255,392.342 208.129,392.342Z" style="fill:rgb(244,125,66);fill-rule:nonzero;"/>
                </g>
                <g transform="matrix(1.02159,0,0,1.00161,0,-0.297443)">
                    <path d="M248.266,390.857C247.141,390.857 246.228,391.521 246.228,392.342C246.228,393.162 247.141,393.826 248.266,393.826C249.391,393.826 250.303,393.162 250.303,392.342C250.303,391.521 249.391,390.857 248.266,390.857Z" style="fill:rgb(244,125,66);fill-rule:nonzero;"/>
                </g>
                <g transform="matrix(1.02159,0,0,1.00161,0,-0.297443)">
                    <path d="M397.397,364.806L288.682,364.806C288.088,364.806 287.606,365.288 287.606,365.882L287.606,401L398.474,401L398.474,365.882C398.474,365.288 397.992,364.806 397.397,364.806Z" style="fill:rgb(196,77,53);fill-rule:nonzero;"/>
                </g>
                <g transform="matrix(1.02159,0,0,1.00161,0,-0.297443)">
                    <path d="M291.929,401L287.606,401L287.606,383.568L288.956,383.568L288.956,381.14C288.96,381.141 288.964,381.142 288.967,381.142L291.808,381.142C291.249,387.713 291.376,395.917 291.929,401ZM295.263,370.302L295.263,364.806L352.402,364.806C307.089,367.6 299.057,367.533 295.263,370.302Z" style="fill:rgb(219,104,74);fill-rule:nonzero;"/>
                </g>
                <g transform="matrix(1.02159,0,0,1.00161,0,-0.297443)">
                    <path d="M398.474,401L373.443,401C384.455,400.665 387.48,400.184 391.029,397.123C395.935,392.891 394.151,373.007 393.197,364.806L397.397,364.806C397.992,364.806 398.474,365.288 398.474,365.882L398.474,401Z" style="fill:rgb(219,104,74);fill-rule:nonzero;"/>
                </g>
                <g transform="matrix(1.02159,0,0,1.00161,0,-0.297443)">
                    <path d="M366.817,394.93C364.013,394.93 361.741,393.339 361.741,391.376C361.741,389.413 364.013,387.822 366.817,387.822C369.62,387.822 371.893,389.413 371.893,391.376C371.893,393.339 369.62,394.93 366.817,394.93Z" style="fill:rgb(241,131,95);fill-rule:nonzero;"/>
                </g>
                <g transform="matrix(1.02159,0,0,1.00161,0,-0.297443)">
                    <path d="M341.038,378.685C339.932,378.685 339.036,377.924 339.036,376.985C339.036,376.045 339.932,375.284 341.038,375.284C342.143,375.284 343.04,376.045 343.04,376.985C343.04,377.924 342.143,378.685 341.038,378.685Z" style="fill:rgb(142,52,37);fill-rule:nonzero;"/>
                </g>
                <g transform="matrix(1.02159,0,0,1.00161,0,-0.297443)">
                    <path d="M307.442,383.108C305.714,383.108 304.314,381.918 304.314,380.45C304.314,378.983 305.714,377.793 307.442,377.793C309.169,377.793 310.57,378.983 310.57,380.45C310.57,381.918 309.169,383.108 307.442,383.108Z" style="fill:rgb(142,52,37);fill-rule:nonzero;"/>
                </g>
                <g transform="matrix(1.02159,0,0,1.00161,0,-0.297443)">
                    <path d="M383.751,371.247C382.075,371.247 380.715,372.402 380.715,373.827C380.715,375.251 382.075,376.406 383.751,376.406C385.428,376.406 386.787,375.251 386.787,373.827C386.787,372.402 385.428,371.247 383.751,371.247Z" style="fill:rgb(244,125,66);fill-rule:nonzero;"/>
                </g>
                <g transform="matrix(1.02159,0,0,1.00161,0,-0.297443)">
                    <path d="M325.002,392.342C323.877,392.342 322.964,393.006 322.964,393.826C322.964,394.647 323.877,395.311 325.002,395.311C326.127,395.311 327.039,394.647 327.039,393.826C327.039,393.006 326.127,392.342 325.002,392.342Z" style="fill:rgb(244,125,66);fill-rule:nonzero;"/>
                </g>
                <g transform="matrix(1.02159,0,0,1.00161,0,-0.297443)">
                    <path d="M514.27,364.806L405.555,364.806C404.96,364.806 404.478,365.288 404.478,365.882L404.478,401L515.346,401L515.346,365.882C515.346,365.288 514.864,364.806 514.27,364.806Z" style="fill:rgb(196,77,53);fill-rule:nonzero;"/>
                </g>
                <g transform="matrix(1.02159,0,0,1.00161,0,-0.297443)">
                    <path d="M408.801,401L404.478,401L404.478,365.882C404.478,365.288 404.96,364.806 405.555,364.806L469.274,364.806C419.234,367.892 414.659,367.488 411.049,371.268C408.161,374.292 407.85,392.259 408.801,401Z" style="fill:rgb(219,104,74);fill-rule:nonzero;"/>
                </g>
                <g transform="matrix(1.02159,0,0,1.00161,0,-0.297443)">
                    <path d="M515.346,401L490.316,401C501.328,400.665 504.352,400.184 507.901,397.123C512.807,392.891 511.023,373.007 510.069,364.806L514.27,364.806C514.864,364.806 515.346,365.288 515.346,365.882L515.346,401Z" style="fill:rgb(219,104,74);fill-rule:nonzero;"/>
                </g>
                <g transform="matrix(1.02159,0,0,1.00161,0,-0.297443)">
                    <path d="M474.35,383.513C471.547,383.513 469.274,381.923 469.274,379.96C469.274,377.997 471.547,376.406 474.35,376.406C477.154,376.406 479.426,377.997 479.426,379.96C479.426,381.923 477.154,383.513 474.35,383.513Z" style="fill:rgb(241,131,95);fill-rule:nonzero;"/>
                </g>
                <g transform="matrix(1.02159,0,0,1.00161,0,-0.297443)">
                    <path d="M457.91,378.685C456.805,378.685 455.908,377.924 455.908,376.985C455.908,376.045 456.805,375.284 457.91,375.284C459.016,375.284 459.912,376.045 459.912,376.985C459.912,377.924 459.016,378.685 457.91,378.685Z" style="fill:rgb(142,52,37);fill-rule:nonzero;"/>
                </g>
                <g transform="matrix(1.02159,0,0,1.00161,0,-0.297443)">
                    <path d="M498.63,388.875C496.665,388.875 495.072,387.522 495.072,385.852C495.072,384.183 496.665,382.829 498.63,382.829C500.595,382.829 502.188,384.183 502.188,385.852C502.188,387.522 500.595,388.875 498.63,388.875Z" style="fill:rgb(142,52,37);fill-rule:nonzero;"/>
                </g>
                <g transform="matrix(1.02159,0,0,1.00161,0,-0.297443)">
                    <path d="M427.939,378.707C426.263,378.707 424.903,379.862 424.903,381.287C424.903,382.711 426.263,383.866 427.939,383.866C429.616,383.866 430.976,382.711 430.976,381.287C430.976,379.862 429.616,378.707 427.939,378.707Z" style="fill:rgb(244,125,66);fill-rule:nonzero;"/>
                </g>
                <g transform="matrix(1.02159,0,0,1.00161,0,-0.297443)">
                    <path d="M441.874,392.342C440.749,392.342 439.837,393.006 439.837,393.826C439.837,394.647 440.749,395.311 441.874,395.311C443,395.311 443.912,394.647 443.912,393.826C443.912,393.006 443,392.342 441.874,392.342Z" style="fill:rgb(244,125,66);fill-rule:nonzero;"/>
                </g>
                <g transform="matrix(1.02159,0,0,1.00161,0,-0.297443)">
                    <path d="M521.351,365.882L521.351,401L555,401L555,364.806L522.427,364.806C521.831,364.806 521.351,365.288 521.351,365.882Z" style="fill:rgb(196,77,53);fill-rule:nonzero;"/>
                </g>
                <g transform="matrix(1.02159,0,0,1.00161,0,-0.297443)">
                    <path d="M525.673,401L521.351,401L521.351,365.882C521.351,365.288 521.831,364.806 522.427,364.806L555,364.806L555,366.674C533.76,367.972 530.569,368.495 527.921,371.268C525.033,374.292 524.723,392.259 525.673,401Z" style="fill:rgb(219,104,74);fill-rule:nonzero;"/>
                </g>
                <g transform="matrix(1.02159,0,0,1.00161,0,-0.297443)">
                    <path d="M541.378,387.558C538.575,387.558 536.302,385.967 536.302,384.004C536.302,382.041 538.575,380.45 541.378,380.45C544.182,380.45 546.455,382.041 546.455,384.004C546.455,385.967 544.182,387.558 541.378,387.558Z" style="fill:rgb(241,131,95);fill-rule:nonzero;"/>
                </g>
                <g transform="matrix(1.02159,0,0,1.00161,0,-0.297443)">
                    <path d="M101.269,236.136C101.182,235.301 101.096,234.532 101.016,233.844L104.69,233.844C103.548,234.606 102.407,235.371 101.269,236.136Z" style="fill:rgb(148,67,43);fill-rule:nonzero;"/>
                </g>
                <g transform="matrix(1.02159,0,0,1.00161,0,-0.297443)">
                    <path d="M89.133,244.404C88.757,243.975 88.534,243.442 88.534,242.865C88.534,241.44 89.893,240.285 91.57,240.285C92.48,240.285 93.297,240.626 93.853,241.165C92.26,242.253 90.687,243.333 89.133,244.404Z" style="fill:rgb(165,81,39);fill-rule:nonzero;"/>
                </g>
                <g transform="matrix(1.02159,0,0,1.00161,0,-0.297443)">
                    <path d="M219.186,248.008C219.111,247.968 219.035,247.926 218.96,247.886C218.913,246.227 218.83,244.575 218.727,242.987C220.194,243.799 221.673,244.627 223.165,245.471L223.165,247.659C221.879,247.806 220.483,247.835 219.186,248.008Z" style="fill:rgb(148,67,43);fill-rule:nonzero;"/>
                </g>
                <g transform="matrix(1.02159,0,0,1.00161,0,-0.297443)">
                    <path d="M211.284,243.775C209.587,242.878 207.894,241.991 206.211,241.116C206.766,240.605 207.56,240.285 208.443,240.285C210.12,240.285 211.479,241.44 211.479,242.865C211.479,243.185 211.41,243.492 211.284,243.775Z" style="fill:rgb(165,81,39);fill-rule:nonzero;"/>
                </g>
                <g transform="matrix(1.02159,0,0,1.00161,0,-0.297443)">
                    <path d="M287.606,383.568L282.661,383.568C282.31,383.494 281.955,383.437 281.601,383.407L281.601,380.533C281.704,380.529 281.808,380.527 281.913,380.527C283.238,380.527 284.691,380.847 285.978,381.142L286,381.142C286.433,381.012 286.89,380.957 287.354,380.957C287.438,380.957 287.522,380.959 287.606,380.962L287.606,383.568ZM53.86,383.568L47.856,383.568L47.856,381.142L53.86,381.142L53.86,383.568ZM170.733,382.665C169.017,382.312 167.315,381.951 165.799,381.422C165.577,381.344 165.327,381.31 165.076,381.31C164.96,381.31 164.843,381.318 164.729,381.331L164.729,379.58C165.584,379.686 166.42,379.849 167.227,380.041C167.919,380.011 168.61,379.981 169.302,379.949C169.339,379.947 169.375,379.947 169.411,379.947C169.577,379.947 169.737,379.964 169.887,379.994C169.851,379.87 169.823,379.744 169.811,379.615C169.785,379.337 170.2,379.08 170.733,378.958L170.733,382.665ZM39.555,364.806L31.552,364.806C31.442,363.941 31.332,363.075 31.224,362.21C31.067,360.954 30.858,359.643 30.116,358.417L37.32,358.417C37.412,358.876 37.475,359.334 37.531,359.785C37.695,361.102 37.863,362.419 38.031,363.736C38.404,363.934 38.768,364.128 39.123,364.31C39.408,364.457 39.549,364.633 39.555,364.806ZM37.497,320.878L30.053,320.878C30.019,320.388 29.887,319.898 29.584,319.433L29.613,319.31C30.521,319.094 31.163,318.719 31.197,318.12C31.248,317.215 29.731,316.303 28.711,315.595C28.589,315.511 28.468,315.427 28.347,315.343L28.347,315.311L37.437,315.311C37.487,315.439 37.511,315.567 37.504,315.695C37.47,316.294 36.828,316.669 35.919,316.885L35.891,317.008C36.216,317.506 36.345,318.035 36.365,318.56C36.379,318.919 35.903,319.142 35.304,319.219L35.283,319.33C35.451,319.465 35.619,319.598 35.793,319.73C36.377,320.068 36.895,320.436 37.378,320.777C37.425,320.81 37.465,320.844 37.497,320.878ZM38.108,277.772L31.294,277.772C31.378,277.178 31.144,276.602 30.438,276.068C33.34,274.994 32.889,273.155 32.009,271.383L38.971,271.383C38.893,272.271 38.301,273.067 36.745,273.643C37.834,274.466 37.8,275.393 37.207,276.325C37.435,276.36 37.664,276.396 37.89,276.435C38.977,276.623 39.59,277.468 38.254,277.744C38.207,277.753 38.158,277.763 38.108,277.772Z" style="fill:rgb(58,33,24);fill-rule:nonzero;"/>
                </g>
                <g transform="matrix(1.02159,0,0,1.00161,0,-0.297443)">
                    <path d="M37.437,315.311L28.347,315.311L28.347,314.441C28.901,314.235 29.195,313.972 29.317,313.679C31.559,313.525 33.3,313.311 34.743,312.979C34.835,313.043 34.926,313.106 35.018,313.17C35.894,313.778 37.136,314.536 37.437,315.311Z" style="fill:rgb(148,67,43);fill-rule:nonzero;"/>
                </g>
                <g transform="matrix(1.02159,0,0,1.00161,0,-0.297443)">
                    <path d="M33.134,289.372C32.288,289.372 31.524,289.078 30.973,288.605C30.968,288.098 30.941,287.595 30.804,287.095C31.051,286.908 31.096,286.662 30.766,286.397C30.625,286.284 30.471,286.174 30.311,286.066C30.287,286.045 30.264,286.024 30.242,286.003C30.635,284.965 31.781,284.213 33.134,284.213C34.811,284.213 36.17,285.368 36.17,286.793C36.17,286.865 36.166,286.938 36.159,287.009C36.028,287.024 35.892,287.031 35.757,287.031C35.712,287.031 35.666,287.03 35.621,287.028C35.348,287.556 35.042,288.078 34.654,288.592L34.654,289.026C34.207,289.246 33.688,289.372 33.134,289.372Z" style="fill:rgb(165,81,39);fill-rule:nonzero;"/>
                </g>
                <g transform="matrix(1.02159,0,0,1.00161,0,-0.297443)">
                    <path d="M28.347,307.149L28.347,298.565C31.655,298.721 34.267,300.583 34.267,302.857C34.267,305.131 31.655,306.993 28.347,307.149Z" style="fill:rgb(162,84,55);fill-rule:nonzero;"/>
                </g>
                <g transform="matrix(1.02159,0,0,1.00161,0,-0.297443)">
                    <path d="M30.306,322.671C30.046,322.496 29.774,322.322 29.486,322.156C29.312,322.024 29.144,321.89 28.977,321.756L28.997,321.645C29.597,321.568 30.073,321.345 30.059,320.986C30.057,320.95 30.055,320.914 30.053,320.878L37.497,320.878C37.948,321.356 36.943,321.868 35.962,321.868C35.855,321.868 35.747,321.862 35.642,321.849L35.701,321.95C35.787,322.084 35.91,322.208 36.052,322.327C34.007,322.448 32.096,322.562 30.306,322.671Z" style="fill:rgb(148,67,43);fill-rule:nonzero;"/>
                </g>
                <g transform="matrix(1.02159,0,0,1.00161,0,-0.297443)">
                    <path d="M32.82,336.032C30.886,336.032 29.204,335.274 28.347,334.159L28.347,330.797C29.204,329.682 30.886,328.924 32.82,328.924C33.467,328.924 34.085,329.009 34.654,329.163L34.654,335.793C34.085,335.947 33.467,336.032 32.82,336.032Z" style="fill:rgb(162,84,55);fill-rule:nonzero;"/>
                </g>
                <g transform="matrix(1.02159,0,0,1.00161,0,-0.297443)">
                    <path d="M47.856,383.568L43.677,383.568C43.694,382.768 43.698,381.957 43.693,381.142L47.856,381.142L47.856,383.568Z" style="fill:rgb(148,67,43);fill-rule:nonzero;"/>
                </g>
                <g transform="matrix(1.02159,0,0,1.00161,0,-0.297443)">
                    <path d="M33.134,376.406C31.835,376.406 30.726,375.713 30.293,374.739C30.617,373.98 30.95,373.222 30.981,372.476C30.986,372.335 30.97,372.192 30.934,372.049C31.487,371.555 32.268,371.247 33.134,371.247C34.678,371.247 35.952,372.226 36.145,373.493C36.144,373.495 36.144,373.497 36.143,373.499C36.146,373.512 36.148,373.526 36.151,373.54C36.163,373.634 36.17,373.73 36.17,373.827C36.17,375.251 34.811,376.406 33.134,376.406Z" style="fill:rgb(165,81,39);fill-rule:nonzero;"/>
                </g>
                <g transform="matrix(1.02159,0,0,1.00161,0,-0.297443)">
                    <path d="M57.891,383.568L53.86,383.568L53.86,381.142L58.063,381.142C57.996,381.93 57.939,382.741 57.891,383.568Z" style="fill:rgb(148,67,43);fill-rule:nonzero;"/>
                </g>
                <g transform="matrix(1.02159,0,0,1.00161,0,-0.297443)">
                    <path d="M160.92,382.466C160.802,382.438 160.685,382.411 160.566,382.384C160.571,381.696 160.567,381.002 160.556,380.306C160.625,380.304 160.694,380.302 160.763,380.299C161.082,379.8 162.256,379.491 163.514,379.491C163.754,379.491 163.997,379.502 164.238,379.526C164.402,379.541 164.566,379.56 164.729,379.58L164.729,381.331C164.059,381.412 163.473,381.712 163.504,382.04C163.516,382.17 163.544,382.295 163.58,382.419C163.43,382.389 163.269,382.372 163.104,382.372C163.068,382.372 163.032,382.373 162.995,382.374C162.303,382.406 161.612,382.436 160.92,382.466Z" style="fill:rgb(148,67,43);fill-rule:nonzero;"/>
                </g>
            </g>
        </g>
        <g id="B1">
            <path d="M106.293,183.273L106.293,147.887C106.293,147.292 105.811,146.81 105.216,146.81L0,146.81L0,184.349L105.216,184.349C105.811,184.349 106.293,183.867 106.293,183.273Z" style="fill:rgb(196,77,53);fill-rule:nonzero;"/>
            <path d="M105.216,184.349L42.978,184.349C88.3,182.065 92.793,184.349 98.847,179.127C103.754,174.896 101.97,155.012 101.016,146.81L105.216,146.81C105.811,146.81 106.293,147.292 106.293,147.887L106.293,183.273C106.293,183.867 105.811,184.349 105.216,184.349Z" style="fill:rgb(219,104,74);fill-rule:nonzero;"/>
        </g>
        <g id="B2">
            <path d="M222.206,146.832L222.089,146.81L113.373,146.81C112.779,146.81 112.297,147.292 112.297,147.887L112.297,183.273C112.297,183.867 112.779,184.349 113.373,184.349L222.089,184.349L222.212,184.327L222.212,183.522L222.206,183.522L222.206,146.832Z" style="fill:rgb(196,77,53);fill-rule:nonzero;"/>
            <path d="M116.785,184.349L113.373,184.349C112.779,184.349 112.297,183.867 112.297,183.273L112.297,147.887C112.297,147.369 112.663,146.936 113.15,146.834C113.222,146.818 113.297,146.81 113.373,146.81L177.093,146.81C127.053,149.896 122.478,149.492 118.868,153.272C115.823,156.461 115.642,176.265 116.785,184.349Z" style="fill:rgb(219,104,74);fill-rule:nonzero;"/>
            <path d="M222.089,184.349L159.851,184.349C205.172,182.065 209.665,184.349 215.72,179.127C220.627,174.896 218.842,155.012 217.889,146.81L222.089,146.81L222.206,146.832L222.206,183.522L222.212,183.522L222.212,184.327L222.089,184.349Z" style="fill:rgb(219,104,74);fill-rule:nonzero;"/>
        </g>
        <g id="B3" transform="matrix(1,0,0,1,115.703,0)">
            <path d="M222.206,146.832L222.089,146.81L113.373,146.81C112.779,146.81 112.297,147.292 112.297,147.887L112.297,183.273C112.297,183.867 112.779,184.349 113.373,184.349L222.089,184.349L222.212,184.327L222.212,183.522L222.206,183.522L222.206,146.832Z" style="fill:rgb(196,77,53);fill-rule:nonzero;"/>
            <path d="M116.785,184.349L113.373,184.349C112.779,184.349 112.297,183.867 112.297,183.273L112.297,147.887C112.297,147.369 112.663,146.936 113.15,146.834C113.222,146.818 113.297,146.81 113.373,146.81L177.093,146.81C127.053,149.896 122.478,149.492 118.868,153.272C115.823,156.461 115.642,176.265 116.785,184.349Z" style="fill:rgb(219,104,74);fill-rule:nonzero;"/>
            <path d="M222.089,184.349L159.851,184.349C205.172,182.065 209.665,184.349 215.72,179.127C220.627,174.896 218.842,155.012 217.889,146.81L222.089,146.81L222.206,146.832L222.206,183.522L222.212,183.522L222.212,184.327L222.089,184.349Z" style="fill:rgb(219,104,74);fill-rule:nonzero;"/>
        </g>
        <g id="B4" transform="matrix(1,0,0,1,233.788,0)">
            <path d="M222.206,146.832L222.089,146.81L113.373,146.81C112.779,146.81 112.297,147.292 112.297,147.887L112.297,183.273C112.297,183.867 112.779,184.349 113.373,184.349L222.089,184.349L222.212,184.327L222.212,183.522L222.206,183.522L222.206,146.832Z" style="fill:rgb(196,77,53);fill-rule:nonzero;"/>
            <path d="M116.785,184.349L113.373,184.349C112.779,184.349 112.297,183.867 112.297,183.273L112.297,147.887C112.297,147.369 112.663,146.936 113.15,146.834C113.222,146.818 113.297,146.81 113.373,146.81L177.093,146.81C127.053,149.896 122.478,149.492 118.868,153.272C115.823,156.461 115.642,176.265 116.785,184.349Z" style="fill:rgb(219,104,74);fill-rule:nonzero;"/>
            <path d="M222.089,184.349L159.851,184.349C205.172,182.065 209.665,184.349 215.72,179.127C220.627,174.896 218.842,155.012 217.889,146.81L222.089,146.81L222.206,146.832L222.206,183.522L222.212,183.522L222.212,184.327L222.089,184.349Z" style="fill:rgb(219,104,74);fill-rule:nonzero;"/>
        </g>
        <g id="B5">
            <rect x="464.658" y="146.933" width="90.342" height="37.416" style="fill:rgb(196,77,53);fill-rule:nonzero;"/>
            <path d="M467.402,184.349L464.658,184.349L464.658,146.933L525.701,146.933C477.576,149.883 473.046,149.544 469.485,153.272C466.44,156.46 466.259,176.265 467.402,184.349Z" style="fill:rgb(219,104,74);fill-rule:nonzero;"/>
            <path d="M555,184.349L510.468,184.349C535.127,183.106 547.686,183.215 555,182.732L555,184.349Z" style="fill:rgb(219,104,74);fill-rule:nonzero;"/>
        </g>
    </g>
</svg>
